%TF.GenerationSoftware,KiCad,Pcbnew,(6.0.7)*%
%TF.CreationDate,2022-09-27T11:44:32+02:00*%
%TF.ProjectId,Frontpannels,46726f6e-7470-4616-9e6e-656c732e6b69,rev?*%
%TF.SameCoordinates,Original*%
%TF.FileFunction,Copper,L1,Top*%
%TF.FilePolarity,Positive*%
%FSLAX46Y46*%
G04 Gerber Fmt 4.6, Leading zero omitted, Abs format (unit mm)*
G04 Created by KiCad (PCBNEW (6.0.7)) date 2022-09-27 11:44:32*
%MOMM*%
%LPD*%
G01*
G04 APERTURE LIST*
%ADD10C,0.500000*%
%TA.AperFunction,NonConductor*%
%ADD11C,0.500000*%
%TD*%
%ADD12C,0.300000*%
%TA.AperFunction,NonConductor*%
%ADD13C,0.300000*%
%TD*%
%ADD14C,0.800000*%
%TA.AperFunction,NonConductor*%
%ADD15C,0.800000*%
%TD*%
%TA.AperFunction,NonConductor*%
%ADD16C,0.200000*%
%TD*%
%ADD17C,0.600000*%
%TA.AperFunction,NonConductor*%
%ADD18C,0.600000*%
%TD*%
G04 APERTURE END LIST*
D10*
D11*
X247630952Y-64526190D02*
X246440476Y-65359523D01*
X247630952Y-65954761D02*
X245130952Y-65954761D01*
X245130952Y-65002380D01*
X245250000Y-64764285D01*
X245369047Y-64645238D01*
X245607142Y-64526190D01*
X245964285Y-64526190D01*
X246202380Y-64645238D01*
X246321428Y-64764285D01*
X246440476Y-65002380D01*
X246440476Y-65954761D01*
D10*
D11*
X248230952Y-118826190D02*
X247040476Y-119659523D01*
X248230952Y-120254761D02*
X245730952Y-120254761D01*
X245730952Y-119302380D01*
X245850000Y-119064285D01*
X245969047Y-118945238D01*
X246207142Y-118826190D01*
X246564285Y-118826190D01*
X246802380Y-118945238D01*
X246921428Y-119064285D01*
X247040476Y-119302380D01*
X247040476Y-120254761D01*
D10*
D11*
X254730952Y-64626190D02*
X254730952Y-65816666D01*
X252230952Y-65816666D01*
D10*
D11*
X240069047Y-46714285D02*
X239950000Y-46595238D01*
X239830952Y-46357142D01*
X239830952Y-45761904D01*
X239950000Y-45523809D01*
X240069047Y-45404761D01*
X240307142Y-45285714D01*
X240545238Y-45285714D01*
X240902380Y-45404761D01*
X242330952Y-46833333D01*
X242330952Y-45285714D01*
D10*
D11*
X270330952Y-74940476D02*
X267830952Y-74940476D01*
X269616666Y-74107142D01*
X267830952Y-73273809D01*
X270330952Y-73273809D01*
X270330952Y-71011904D02*
X269021428Y-71011904D01*
X268783333Y-71130952D01*
X268664285Y-71369047D01*
X268664285Y-71845238D01*
X268783333Y-72083333D01*
X270211904Y-71011904D02*
X270330952Y-71250000D01*
X270330952Y-71845238D01*
X270211904Y-72083333D01*
X269973809Y-72202380D01*
X269735714Y-72202380D01*
X269497619Y-72083333D01*
X269378571Y-71845238D01*
X269378571Y-71250000D01*
X269259523Y-71011904D01*
X270330952Y-69821428D02*
X268664285Y-69821428D01*
X267830952Y-69821428D02*
X267950000Y-69940476D01*
X268069047Y-69821428D01*
X267950000Y-69702380D01*
X267830952Y-69821428D01*
X268069047Y-69821428D01*
X268664285Y-68630952D02*
X270330952Y-68630952D01*
X268902380Y-68630952D02*
X268783333Y-68511904D01*
X268664285Y-68273809D01*
X268664285Y-67916666D01*
X268783333Y-67678571D01*
X269021428Y-67559523D01*
X270330952Y-67559523D01*
D10*
D11*
X267580952Y-123511904D02*
X267580952Y-124702380D01*
X265080952Y-124702380D01*
X267580952Y-92678571D02*
X266390476Y-93511904D01*
X267580952Y-94107142D02*
X265080952Y-94107142D01*
X265080952Y-93154761D01*
X265200000Y-92916666D01*
X265319047Y-92797619D01*
X265557142Y-92678571D01*
X265914285Y-92678571D01*
X266152380Y-92797619D01*
X266271428Y-92916666D01*
X266390476Y-93154761D01*
X266390476Y-94107142D01*
D12*
D13*
X292450000Y-111892857D02*
X292378571Y-112035714D01*
X292378571Y-112250000D01*
X292450000Y-112464285D01*
X292592857Y-112607142D01*
X292735714Y-112678571D01*
X293021428Y-112750000D01*
X293235714Y-112750000D01*
X293521428Y-112678571D01*
X293664285Y-112607142D01*
X293807142Y-112464285D01*
X293878571Y-112250000D01*
X293878571Y-112107142D01*
X293807142Y-111892857D01*
X293735714Y-111821428D01*
X293235714Y-111821428D01*
X293235714Y-112107142D01*
X293878571Y-111178571D02*
X292378571Y-111178571D01*
X293878571Y-110321428D01*
X292378571Y-110321428D01*
X293878571Y-109607142D02*
X292378571Y-109607142D01*
X292378571Y-109250000D01*
X292450000Y-109035714D01*
X292592857Y-108892857D01*
X292735714Y-108821428D01*
X293021428Y-108750000D01*
X293235714Y-108750000D01*
X293521428Y-108821428D01*
X293664285Y-108892857D01*
X293807142Y-109035714D01*
X293878571Y-109250000D01*
X293878571Y-109607142D01*
X293878571Y-106250000D02*
X293878571Y-106964285D01*
X292378571Y-106964285D01*
X293878571Y-105750000D02*
X292378571Y-105750000D01*
X293092857Y-104535714D02*
X293092857Y-105035714D01*
X293878571Y-105035714D02*
X292378571Y-105035714D01*
X292378571Y-104321428D01*
X292378571Y-103964285D02*
X292378571Y-103107142D01*
X293878571Y-103535714D02*
X292378571Y-103535714D01*
D10*
D11*
X270330952Y-62892857D02*
X267830952Y-62892857D01*
X269021428Y-62892857D02*
X269021428Y-61464285D01*
X270330952Y-61464285D02*
X267830952Y-61464285D01*
X270211904Y-59321428D02*
X270330952Y-59559523D01*
X270330952Y-60035714D01*
X270211904Y-60273809D01*
X269973809Y-60392857D01*
X269021428Y-60392857D01*
X268783333Y-60273809D01*
X268664285Y-60035714D01*
X268664285Y-59559523D01*
X268783333Y-59321428D01*
X269021428Y-59202380D01*
X269259523Y-59202380D01*
X269497619Y-60392857D01*
X270330952Y-57059523D02*
X269021428Y-57059523D01*
X268783333Y-57178571D01*
X268664285Y-57416666D01*
X268664285Y-57892857D01*
X268783333Y-58130952D01*
X270211904Y-57059523D02*
X270330952Y-57297619D01*
X270330952Y-57892857D01*
X270211904Y-58130952D01*
X269973809Y-58250000D01*
X269735714Y-58250000D01*
X269497619Y-58130952D01*
X269378571Y-57892857D01*
X269378571Y-57297619D01*
X269259523Y-57059523D01*
X270330952Y-54797619D02*
X267830952Y-54797619D01*
X270211904Y-54797619D02*
X270330952Y-55035714D01*
X270330952Y-55511904D01*
X270211904Y-55750000D01*
X270092857Y-55869047D01*
X269854761Y-55988095D01*
X269140476Y-55988095D01*
X268902380Y-55869047D01*
X268783333Y-55750000D01*
X268664285Y-55511904D01*
X268664285Y-55035714D01*
X268783333Y-54797619D01*
X268664285Y-53607142D02*
X271164285Y-53607142D01*
X268783333Y-53607142D02*
X268664285Y-53369047D01*
X268664285Y-52892857D01*
X268783333Y-52654761D01*
X268902380Y-52535714D01*
X269140476Y-52416666D01*
X269854761Y-52416666D01*
X270092857Y-52535714D01*
X270211904Y-52654761D01*
X270330952Y-52892857D01*
X270330952Y-53369047D01*
X270211904Y-53607142D01*
X270330952Y-51345238D02*
X267830952Y-51345238D01*
X270330952Y-50273809D02*
X269021428Y-50273809D01*
X268783333Y-50392857D01*
X268664285Y-50630952D01*
X268664285Y-50988095D01*
X268783333Y-51226190D01*
X268902380Y-51345238D01*
X270330952Y-48726190D02*
X270211904Y-48964285D01*
X270092857Y-49083333D01*
X269854761Y-49202380D01*
X269140476Y-49202380D01*
X268902380Y-49083333D01*
X268783333Y-48964285D01*
X268664285Y-48726190D01*
X268664285Y-48369047D01*
X268783333Y-48130952D01*
X268902380Y-48011904D01*
X269140476Y-47892857D01*
X269854761Y-47892857D01*
X270092857Y-48011904D01*
X270211904Y-48130952D01*
X270330952Y-48369047D01*
X270330952Y-48726190D01*
X268664285Y-46821428D02*
X270330952Y-46821428D01*
X268902380Y-46821428D02*
X268783333Y-46702380D01*
X268664285Y-46464285D01*
X268664285Y-46107142D01*
X268783333Y-45869047D01*
X269021428Y-45750000D01*
X270330952Y-45750000D01*
X270211904Y-43607142D02*
X270330952Y-43845238D01*
X270330952Y-44321428D01*
X270211904Y-44559523D01*
X269973809Y-44678571D01*
X269021428Y-44678571D01*
X268783333Y-44559523D01*
X268664285Y-44321428D01*
X268664285Y-43845238D01*
X268783333Y-43607142D01*
X269021428Y-43488095D01*
X269259523Y-43488095D01*
X269497619Y-44678571D01*
D10*
D11*
X242330952Y-27035714D02*
X242330952Y-28464285D01*
X242330952Y-27750000D02*
X239830952Y-27750000D01*
X240188095Y-27988095D01*
X240426190Y-28226190D01*
X240545238Y-28464285D01*
D10*
D11*
X259830952Y-28226190D02*
X259830952Y-27750000D01*
X259711904Y-27511904D01*
X259592857Y-27392857D01*
X259235714Y-27154761D01*
X258759523Y-27035714D01*
X257807142Y-27035714D01*
X257569047Y-27154761D01*
X257450000Y-27273809D01*
X257330952Y-27511904D01*
X257330952Y-27988095D01*
X257450000Y-28226190D01*
X257569047Y-28345238D01*
X257807142Y-28464285D01*
X258402380Y-28464285D01*
X258640476Y-28345238D01*
X258759523Y-28226190D01*
X258878571Y-27988095D01*
X258878571Y-27511904D01*
X258759523Y-27273809D01*
X258640476Y-27154761D01*
X258402380Y-27035714D01*
D10*
D11*
X259830952Y-45226190D02*
X259830952Y-46654761D01*
X259830952Y-45940476D02*
X257330952Y-45940476D01*
X257688095Y-46178571D01*
X257926190Y-46416666D01*
X258045238Y-46654761D01*
X257330952Y-43678571D02*
X257330952Y-43440476D01*
X257450000Y-43202380D01*
X257569047Y-43083333D01*
X257807142Y-42964285D01*
X258283333Y-42845238D01*
X258878571Y-42845238D01*
X259354761Y-42964285D01*
X259592857Y-43083333D01*
X259711904Y-43202380D01*
X259830952Y-43440476D01*
X259830952Y-43678571D01*
X259711904Y-43916666D01*
X259592857Y-44035714D01*
X259354761Y-44154761D01*
X258878571Y-44273809D01*
X258283333Y-44273809D01*
X257807142Y-44154761D01*
X257569047Y-44035714D01*
X257450000Y-43916666D01*
X257330952Y-43678571D01*
D14*
D15*
X257759523Y-112904761D02*
X253759523Y-112904761D01*
X256616666Y-111571428D01*
X253759523Y-110238095D01*
X257759523Y-110238095D01*
X253759523Y-107571428D02*
X253759523Y-106809523D01*
X253950000Y-106428571D01*
X254330952Y-106047619D01*
X255092857Y-105857142D01*
X256426190Y-105857142D01*
X257188095Y-106047619D01*
X257569047Y-106428571D01*
X257759523Y-106809523D01*
X257759523Y-107571428D01*
X257569047Y-107952380D01*
X257188095Y-108333333D01*
X256426190Y-108523809D01*
X255092857Y-108523809D01*
X254330952Y-108333333D01*
X253950000Y-107952380D01*
X253759523Y-107571428D01*
X257759523Y-104142857D02*
X253759523Y-104142857D01*
X253759523Y-103190476D01*
X253950000Y-102619047D01*
X254330952Y-102238095D01*
X254711904Y-102047619D01*
X255473809Y-101857142D01*
X256045238Y-101857142D01*
X256807142Y-102047619D01*
X257188095Y-102238095D01*
X257569047Y-102619047D01*
X257759523Y-103190476D01*
X257759523Y-104142857D01*
X253759523Y-100142857D02*
X256997619Y-100142857D01*
X257378571Y-99952380D01*
X257569047Y-99761904D01*
X257759523Y-99380952D01*
X257759523Y-98619047D01*
X257569047Y-98238095D01*
X257378571Y-98047619D01*
X256997619Y-97857142D01*
X253759523Y-97857142D01*
X257759523Y-94047619D02*
X257759523Y-95952380D01*
X253759523Y-95952380D01*
X256616666Y-92904761D02*
X256616666Y-91000000D01*
X257759523Y-93285714D02*
X253759523Y-91952380D01*
X257759523Y-90619047D01*
X257759523Y-89285714D02*
X253759523Y-89285714D01*
X257759523Y-87000000D01*
X253759523Y-87000000D01*
X257759523Y-85095238D02*
X253759523Y-85095238D01*
X253759523Y-84142857D01*
X253950000Y-83571428D01*
X254330952Y-83190476D01*
X254711904Y-83000000D01*
X255473809Y-82809523D01*
X256045238Y-82809523D01*
X256807142Y-83000000D01*
X257188095Y-83190476D01*
X257569047Y-83571428D01*
X257759523Y-84142857D01*
X257759523Y-85095238D01*
X257759523Y-81095238D02*
X253759523Y-81095238D01*
D10*
D11*
X239830952Y-115523809D02*
X239830952Y-116000000D01*
X239950000Y-116238095D01*
X240069047Y-116357142D01*
X240426190Y-116595238D01*
X240902380Y-116714285D01*
X241854761Y-116714285D01*
X242092857Y-116595238D01*
X242211904Y-116476190D01*
X242330952Y-116238095D01*
X242330952Y-115761904D01*
X242211904Y-115523809D01*
X242092857Y-115404761D01*
X241854761Y-115285714D01*
X241259523Y-115285714D01*
X241021428Y-115404761D01*
X240902380Y-115523809D01*
X240783333Y-115761904D01*
X240783333Y-116238095D01*
X240902380Y-116476190D01*
X241021428Y-116595238D01*
X241259523Y-116714285D01*
D10*
D11*
X273104761Y-111250000D02*
X275104761Y-109916666D01*
X273104761Y-109916666D02*
X275104761Y-111250000D01*
X275104761Y-108202380D02*
X275104761Y-109154761D01*
X273104761Y-109154761D01*
X275104761Y-106392857D02*
X274152380Y-107059523D01*
X275104761Y-107535714D02*
X273104761Y-107535714D01*
X273104761Y-106773809D01*
X273200000Y-106583333D01*
X273295238Y-106488095D01*
X273485714Y-106392857D01*
X273771428Y-106392857D01*
X273961904Y-106488095D01*
X274057142Y-106583333D01*
X274152380Y-106773809D01*
X274152380Y-107535714D01*
D10*
D11*
X239830952Y-98654761D02*
X239830952Y-99845238D01*
X241021428Y-99964285D01*
X240902380Y-99845238D01*
X240783333Y-99607142D01*
X240783333Y-99011904D01*
X240902380Y-98773809D01*
X241021428Y-98654761D01*
X241259523Y-98535714D01*
X241854761Y-98535714D01*
X242092857Y-98654761D01*
X242211904Y-98773809D01*
X242330952Y-99011904D01*
X242330952Y-99607142D01*
X242211904Y-99845238D01*
X242092857Y-99964285D01*
D10*
D11*
X240664285Y-81023809D02*
X242330952Y-81023809D01*
X239711904Y-81619047D02*
X241497619Y-82214285D01*
X241497619Y-80666666D01*
D10*
D11*
X270330952Y-37357142D02*
X269140476Y-38190476D01*
X270330952Y-38785714D02*
X267830952Y-38785714D01*
X267830952Y-37833333D01*
X267950000Y-37595238D01*
X268069047Y-37476190D01*
X268307142Y-37357142D01*
X268664285Y-37357142D01*
X268902380Y-37476190D01*
X269021428Y-37595238D01*
X269140476Y-37833333D01*
X269140476Y-38785714D01*
X269021428Y-36285714D02*
X269021428Y-35452380D01*
X270330952Y-35095238D02*
X270330952Y-36285714D01*
X267830952Y-36285714D01*
X267830952Y-35095238D01*
X270092857Y-32595238D02*
X270211904Y-32714285D01*
X270330952Y-33071428D01*
X270330952Y-33309523D01*
X270211904Y-33666666D01*
X269973809Y-33904761D01*
X269735714Y-34023809D01*
X269259523Y-34142857D01*
X268902380Y-34142857D01*
X268426190Y-34023809D01*
X268188095Y-33904761D01*
X267950000Y-33666666D01*
X267830952Y-33309523D01*
X267830952Y-33071428D01*
X267950000Y-32714285D01*
X268069047Y-32595238D01*
D10*
D11*
X239830952Y-63083333D02*
X239830952Y-61535714D01*
X240783333Y-62369047D01*
X240783333Y-62011904D01*
X240902380Y-61773809D01*
X241021428Y-61654761D01*
X241259523Y-61535714D01*
X241854761Y-61535714D01*
X242092857Y-61654761D01*
X242211904Y-61773809D01*
X242330952Y-62011904D01*
X242330952Y-62726190D01*
X242211904Y-62964285D01*
X242092857Y-63083333D01*
D10*
D11*
X253930952Y-118726190D02*
X253930952Y-119916666D01*
X251430952Y-119916666D01*
D16*
X206250000Y-64000000D02*
G75*
G03*
X206250000Y-64000000I-500000J0D01*
G01*
X215250000Y-100500000D02*
X214750000Y-99500001D01*
X214750000Y-99500001D02*
X215750000Y-99000000D01*
D11*
X201250000Y-134500000D02*
G75*
G03*
X201250000Y-134500000I-1000000J0D01*
G01*
D16*
X209750000Y-99500000D02*
X205250000Y-101500000D01*
X214750000Y-103499999D02*
X215750000Y-104000000D01*
X201750000Y-62000000D02*
G75*
G03*
X201750000Y-62000000I-500000J0D01*
G01*
X203750000Y-18500000D02*
G75*
G03*
X203750000Y-18500000I-500000J0D01*
G01*
X198750000Y-20500000D02*
X203250000Y-18500000D01*
X201250000Y-62000000D02*
X205750000Y-60000000D01*
X201250000Y-62000000D02*
X205750000Y-64000000D01*
D11*
X208250000Y-134500000D02*
G75*
G03*
X208250000Y-134500000I-1000000J0D01*
G01*
X207250000Y-133500000D02*
G75*
G03*
X200250000Y-133500000I-3500000J0D01*
G01*
D16*
X210250000Y-99500000D02*
G75*
G03*
X210250000Y-99500000I-500000J0D01*
G01*
X203750000Y-22500000D02*
G75*
G03*
X203750000Y-22500000I-500000J0D01*
G01*
X205750000Y-60000000D02*
X201250000Y-62000000D01*
X214750000Y-103499999D02*
G75*
G03*
X214750000Y-99500001I-500000J1999999D01*
G01*
X205250000Y-101500000D02*
X209750000Y-99500000D01*
X214750000Y-99500001D02*
X215250000Y-100500000D01*
X215250000Y-102500000D02*
X214750000Y-103499999D01*
X205750000Y-101500000D02*
G75*
G03*
X205750000Y-101500000I-500000J0D01*
G01*
X203250000Y-18500000D02*
X198750000Y-20500000D01*
X214750000Y-103499999D02*
X215250000Y-102500000D01*
X199250000Y-20500000D02*
G75*
G03*
X199250000Y-20500000I-500000J0D01*
G01*
X205250000Y-101500000D02*
X209750000Y-103500000D01*
X206250000Y-60000000D02*
G75*
G03*
X206250000Y-60000000I-500000J0D01*
G01*
X210250000Y-103500000D02*
G75*
G03*
X210250000Y-103500000I-500000J0D01*
G01*
X198750000Y-20500000D02*
X203250000Y-22500000D01*
D17*
D18*
X179250000Y-18285714D02*
X178250000Y-18285714D01*
X178250000Y-19857142D02*
X178250000Y-16857142D01*
X179678571Y-16857142D01*
X180535714Y-16857142D02*
X182535714Y-19857142D01*
X182535714Y-16857142D02*
X180535714Y-19857142D01*
D17*
D18*
X127678571Y-23857142D02*
X126250000Y-23857142D01*
X126250000Y-20857142D01*
D10*
D11*
X208321428Y-63857142D02*
X207321428Y-63857142D01*
X207321428Y-64904761D02*
X207321428Y-62904761D01*
X208750000Y-62904761D01*
X209607142Y-62904761D02*
X211607142Y-64904761D01*
X211607142Y-62904761D02*
X209607142Y-64904761D01*
X212607142Y-63095238D02*
X212750000Y-63000000D01*
X213035714Y-62904761D01*
X213750000Y-62904761D01*
X214035714Y-63000000D01*
X214178571Y-63095238D01*
X214321428Y-63285714D01*
X214321428Y-63476190D01*
X214178571Y-63761904D01*
X212464285Y-64904761D01*
X214321428Y-64904761D01*
D17*
D18*
X121321428Y-20857142D02*
X120750000Y-20857142D01*
X120464285Y-21000000D01*
X120321428Y-21142857D01*
X120035714Y-21571428D01*
X119892857Y-22142857D01*
X119892857Y-23285714D01*
X120035714Y-23571428D01*
X120178571Y-23714285D01*
X120464285Y-23857142D01*
X121035714Y-23857142D01*
X121321428Y-23714285D01*
X121464285Y-23571428D01*
X121607142Y-23285714D01*
X121607142Y-22571428D01*
X121464285Y-22285714D01*
X121321428Y-22142857D01*
X121035714Y-22000000D01*
X120464285Y-22000000D01*
X120178571Y-22142857D01*
X120035714Y-22285714D01*
X119892857Y-22571428D01*
D10*
D11*
X205821428Y-22857142D02*
X204821428Y-22857142D01*
X204821428Y-23904761D02*
X204821428Y-21904761D01*
X206250000Y-21904761D01*
X207107142Y-21904761D02*
X209107142Y-23904761D01*
X209107142Y-21904761D02*
X207107142Y-23904761D01*
X211821428Y-23904761D02*
X210107142Y-23904761D01*
X210964285Y-23904761D02*
X210964285Y-21904761D01*
X210678571Y-22190476D01*
X210392857Y-22380952D01*
X210107142Y-22476190D01*
D17*
D18*
X217321428Y-135357142D02*
X217321428Y-132357142D01*
X218321428Y-134500000D01*
X219321428Y-132357142D01*
X219321428Y-135357142D01*
X222035714Y-135357142D02*
X222035714Y-133785714D01*
X221892857Y-133500000D01*
X221607142Y-133357142D01*
X221035714Y-133357142D01*
X220750000Y-133500000D01*
X222035714Y-135214285D02*
X221750000Y-135357142D01*
X221035714Y-135357142D01*
X220750000Y-135214285D01*
X220607142Y-134928571D01*
X220607142Y-134642857D01*
X220750000Y-134357142D01*
X221035714Y-134214285D01*
X221750000Y-134214285D01*
X222035714Y-134071428D01*
X223464285Y-135357142D02*
X223464285Y-133357142D01*
X223464285Y-132357142D02*
X223321428Y-132500000D01*
X223464285Y-132642857D01*
X223607142Y-132500000D01*
X223464285Y-132357142D01*
X223464285Y-132642857D01*
X224892857Y-133357142D02*
X224892857Y-135357142D01*
X224892857Y-133642857D02*
X225035714Y-133500000D01*
X225321428Y-133357142D01*
X225750000Y-133357142D01*
X226035714Y-133500000D01*
X226178571Y-133785714D01*
X226178571Y-135357142D01*
D10*
D11*
X213178571Y-100794761D02*
X212178571Y-99842380D01*
X211464285Y-100794761D02*
X211464285Y-98794761D01*
X212607142Y-98794761D01*
X212892857Y-98890000D01*
X213035714Y-98985238D01*
X213178571Y-99175714D01*
X213178571Y-99461428D01*
X213035714Y-99651904D01*
X212892857Y-99747142D01*
X212607142Y-99842380D01*
X211464285Y-99842380D01*
X213178571Y-104014761D02*
X211750000Y-104014761D01*
X211750000Y-102014761D01*
D10*
D11*
X205321428Y-48857142D02*
X204321428Y-48857142D01*
X204321428Y-49904761D02*
X204321428Y-47904761D01*
X205750000Y-47904761D01*
X206607142Y-47904761D02*
X208607142Y-49904761D01*
X208607142Y-47904761D02*
X206607142Y-49904761D01*
X211321428Y-49904761D02*
X209607142Y-49904761D01*
X210464285Y-49904761D02*
X210464285Y-47904761D01*
X210178571Y-48190476D01*
X209892857Y-48380952D01*
X209607142Y-48476190D01*
D17*
D18*
X180250000Y-76357142D02*
X182107142Y-76357142D01*
X181107142Y-77500000D01*
X181535714Y-77500000D01*
X181821428Y-77642857D01*
X181964285Y-77785714D01*
X182107142Y-78071428D01*
X182107142Y-78785714D01*
X181964285Y-79071428D01*
X181821428Y-79214285D01*
X181535714Y-79357142D01*
X180678571Y-79357142D01*
X180392857Y-79214285D01*
X180250000Y-79071428D01*
D17*
D18*
X115678571Y-23857142D02*
X114678571Y-22428571D01*
X113964285Y-23857142D02*
X113964285Y-20857142D01*
X115107142Y-20857142D01*
X115392857Y-21000000D01*
X115535714Y-21142857D01*
X115678571Y-21428571D01*
X115678571Y-21857142D01*
X115535714Y-22142857D01*
X115392857Y-22285714D01*
X115107142Y-22428571D01*
X113964285Y-22428571D01*
D10*
D11*
X220250000Y-36904761D02*
X220250000Y-34904761D01*
X221250000Y-36333333D01*
X222250000Y-34904761D01*
X222250000Y-36904761D01*
X224964285Y-35571428D02*
X224964285Y-36904761D01*
X223678571Y-35571428D02*
X223678571Y-36619047D01*
X223821428Y-36809523D01*
X224107142Y-36904761D01*
X224535714Y-36904761D01*
X224821428Y-36809523D01*
X224964285Y-36714285D01*
X225964285Y-35571428D02*
X227107142Y-35571428D01*
X226392857Y-34904761D02*
X226392857Y-36619047D01*
X226535714Y-36809523D01*
X226821428Y-36904761D01*
X227107142Y-36904761D01*
X229250000Y-36809523D02*
X228964285Y-36904761D01*
X228392857Y-36904761D01*
X228107142Y-36809523D01*
X227964285Y-36619047D01*
X227964285Y-35857142D01*
X228107142Y-35666666D01*
X228392857Y-35571428D01*
X228964285Y-35571428D01*
X229250000Y-35666666D01*
X229392857Y-35857142D01*
X229392857Y-36047619D01*
X227964285Y-36238095D01*
D10*
D11*
X203392857Y-36904761D02*
X203392857Y-34904761D01*
X204392857Y-36333333D01*
X205392857Y-34904761D01*
X205392857Y-36904761D01*
X208107142Y-36904761D02*
X208107142Y-35857142D01*
X207964285Y-35666666D01*
X207678571Y-35571428D01*
X207107142Y-35571428D01*
X206821428Y-35666666D01*
X208107142Y-36809523D02*
X207821428Y-36904761D01*
X207107142Y-36904761D01*
X206821428Y-36809523D01*
X206678571Y-36619047D01*
X206678571Y-36428571D01*
X206821428Y-36238095D01*
X207107142Y-36142857D01*
X207821428Y-36142857D01*
X208107142Y-36047619D01*
X209535714Y-36904761D02*
X209535714Y-35571428D01*
X209535714Y-34904761D02*
X209392857Y-35000000D01*
X209535714Y-35095238D01*
X209678571Y-35000000D01*
X209535714Y-34904761D01*
X209535714Y-35095238D01*
X210964285Y-35571428D02*
X210964285Y-36904761D01*
X210964285Y-35761904D02*
X211107142Y-35666666D01*
X211392857Y-35571428D01*
X211821428Y-35571428D01*
X212107142Y-35666666D01*
X212250000Y-35857142D01*
X212250000Y-36904761D01*
X215250000Y-36904761D02*
X213535714Y-36904761D01*
X214392857Y-36904761D02*
X214392857Y-34904761D01*
X214107142Y-35190476D01*
X213821428Y-35380952D01*
X213535714Y-35476190D01*
D17*
D18*
X182107142Y-24357142D02*
X180392857Y-24357142D01*
X181250000Y-24357142D02*
X181250000Y-21357142D01*
X180964285Y-21785714D01*
X180678571Y-22071428D01*
X180392857Y-22214285D01*
D17*
D18*
X142250000Y-20857142D02*
X144250000Y-20857142D01*
X142964285Y-23857142D01*
D17*
D18*
X24107142Y-23857142D02*
X22392857Y-23857142D01*
X23250000Y-23857142D02*
X23250000Y-20857142D01*
X22964285Y-21285714D01*
X22678571Y-21571428D01*
X22392857Y-21714285D01*
D17*
D18*
X51750000Y-20857142D02*
X53607142Y-20857142D01*
X52607142Y-22000000D01*
X53035714Y-22000000D01*
X53321428Y-22142857D01*
X53464285Y-22285714D01*
X53607142Y-22571428D01*
X53607142Y-23285714D01*
X53464285Y-23571428D01*
X53321428Y-23714285D01*
X53035714Y-23857142D01*
X52178571Y-23857142D01*
X51892857Y-23714285D01*
X51750000Y-23571428D01*
X56607142Y-23857142D02*
X55607142Y-22428571D01*
X54892857Y-23857142D02*
X54892857Y-20857142D01*
X56035714Y-20857142D01*
X56321428Y-21000000D01*
X56464285Y-21142857D01*
X56607142Y-21428571D01*
X56607142Y-21857142D01*
X56464285Y-22142857D01*
X56321428Y-22285714D01*
X56035714Y-22428571D01*
X54892857Y-22428571D01*
D17*
D18*
X180892857Y-48142857D02*
X181035714Y-48000000D01*
X181321428Y-47857142D01*
X182035714Y-47857142D01*
X182321428Y-48000000D01*
X182464285Y-48142857D01*
X182607142Y-48428571D01*
X182607142Y-48714285D01*
X182464285Y-49142857D01*
X180750000Y-50857142D01*
X182607142Y-50857142D01*
D10*
D11*
X208321428Y-88857142D02*
X207321428Y-88857142D01*
X207321428Y-89904761D02*
X207321428Y-87904761D01*
X208750000Y-87904761D01*
X209607142Y-87904761D02*
X211607142Y-89904761D01*
X211607142Y-87904761D02*
X209607142Y-89904761D01*
X212607142Y-88095238D02*
X212750000Y-88000000D01*
X213035714Y-87904761D01*
X213750000Y-87904761D01*
X214035714Y-88000000D01*
X214178571Y-88095238D01*
X214321428Y-88285714D01*
X214321428Y-88476190D01*
X214178571Y-88761904D01*
X212464285Y-89904761D01*
X214321428Y-89904761D01*
D17*
D18*
X64535714Y-20857142D02*
X66392857Y-20857142D01*
X65392857Y-22000000D01*
X65821428Y-22000000D01*
X66107142Y-22142857D01*
X66250000Y-22285714D01*
X66392857Y-22571428D01*
X66392857Y-23285714D01*
X66250000Y-23571428D01*
X66107142Y-23714285D01*
X65821428Y-23857142D01*
X64964285Y-23857142D01*
X64678571Y-23714285D01*
X64535714Y-23571428D01*
X69107142Y-23857142D02*
X67678571Y-23857142D01*
X67678571Y-20857142D01*
D17*
D18*
X158464285Y-22142857D02*
X158178571Y-22000000D01*
X158035714Y-21857142D01*
X157892857Y-21571428D01*
X157892857Y-21428571D01*
X158035714Y-21142857D01*
X158178571Y-21000000D01*
X158464285Y-20857142D01*
X159035714Y-20857142D01*
X159321428Y-21000000D01*
X159464285Y-21142857D01*
X159607142Y-21428571D01*
X159607142Y-21571428D01*
X159464285Y-21857142D01*
X159321428Y-22000000D01*
X159035714Y-22142857D01*
X158464285Y-22142857D01*
X158178571Y-22285714D01*
X158035714Y-22428571D01*
X157892857Y-22714285D01*
X157892857Y-23285714D01*
X158035714Y-23571428D01*
X158178571Y-23714285D01*
X158464285Y-23857142D01*
X159035714Y-23857142D01*
X159321428Y-23714285D01*
X159464285Y-23571428D01*
X159607142Y-23285714D01*
X159607142Y-22714285D01*
X159464285Y-22428571D01*
X159321428Y-22285714D01*
X159035714Y-22142857D01*
D17*
D18*
X175678571Y-24357142D02*
X174678571Y-22928571D01*
X173964285Y-24357142D02*
X173964285Y-21357142D01*
X175107142Y-21357142D01*
X175392857Y-21500000D01*
X175535714Y-21642857D01*
X175678571Y-21928571D01*
X175678571Y-22357142D01*
X175535714Y-22642857D01*
X175392857Y-22785714D01*
X175107142Y-22928571D01*
X173964285Y-22928571D01*
D17*
D18*
X181821428Y-106857142D02*
X181821428Y-108857142D01*
X181107142Y-105714285D02*
X180392857Y-107857142D01*
X182250000Y-107857142D01*
D10*
D11*
X207392857Y-61404761D02*
X207392857Y-59404761D01*
X208392857Y-60833333D01*
X209392857Y-59404761D01*
X209392857Y-61404761D01*
X212107142Y-61404761D02*
X212107142Y-60357142D01*
X211964285Y-60166666D01*
X211678571Y-60071428D01*
X211107142Y-60071428D01*
X210821428Y-60166666D01*
X212107142Y-61309523D02*
X211821428Y-61404761D01*
X211107142Y-61404761D01*
X210821428Y-61309523D01*
X210678571Y-61119047D01*
X210678571Y-60928571D01*
X210821428Y-60738095D01*
X211107142Y-60642857D01*
X211821428Y-60642857D01*
X212107142Y-60547619D01*
X213535714Y-61404761D02*
X213535714Y-60071428D01*
X213535714Y-59404761D02*
X213392857Y-59500000D01*
X213535714Y-59595238D01*
X213678571Y-59500000D01*
X213535714Y-59404761D01*
X213535714Y-59595238D01*
X214964285Y-60071428D02*
X214964285Y-61404761D01*
X214964285Y-60261904D02*
X215107142Y-60166666D01*
X215392857Y-60071428D01*
X215821428Y-60071428D01*
X216107142Y-60166666D01*
X216250000Y-60357142D01*
X216250000Y-61404761D01*
X217535714Y-59595238D02*
X217678571Y-59500000D01*
X217964285Y-59404761D01*
X218678571Y-59404761D01*
X218964285Y-59500000D01*
X219107142Y-59595238D01*
X219250000Y-59785714D01*
X219250000Y-59976190D01*
X219107142Y-60261904D01*
X217392857Y-61404761D01*
X219250000Y-61404761D01*
D17*
D18*
X98964285Y-20857142D02*
X97535714Y-20857142D01*
X97392857Y-22285714D01*
X97535714Y-22142857D01*
X97821428Y-22000000D01*
X98535714Y-22000000D01*
X98821428Y-22142857D01*
X98964285Y-22285714D01*
X99107142Y-22571428D01*
X99107142Y-23285714D01*
X98964285Y-23571428D01*
X98821428Y-23714285D01*
X98535714Y-23857142D01*
X97821428Y-23857142D01*
X97535714Y-23714285D01*
X97392857Y-23571428D01*
D17*
D18*
X188178571Y-24357142D02*
X186750000Y-24357142D01*
X186750000Y-21357142D01*
D17*
D18*
X37392857Y-21142857D02*
X37535714Y-21000000D01*
X37821428Y-20857142D01*
X38535714Y-20857142D01*
X38821428Y-21000000D01*
X38964285Y-21142857D01*
X39107142Y-21428571D01*
X39107142Y-21714285D01*
X38964285Y-22142857D01*
X37250000Y-23857142D01*
X39107142Y-23857142D01*
D17*
D18*
X84321428Y-21857142D02*
X84321428Y-23857142D01*
X83607142Y-20714285D02*
X82892857Y-22857142D01*
X84750000Y-22857142D01*
D10*
D11*
X205392857Y-76404761D02*
X205392857Y-74404761D01*
X206392857Y-75833333D01*
X207392857Y-74404761D01*
X207392857Y-76404761D01*
X210107142Y-76404761D02*
X210107142Y-75357142D01*
X209964285Y-75166666D01*
X209678571Y-75071428D01*
X209107142Y-75071428D01*
X208821428Y-75166666D01*
X210107142Y-76309523D02*
X209821428Y-76404761D01*
X209107142Y-76404761D01*
X208821428Y-76309523D01*
X208678571Y-76119047D01*
X208678571Y-75928571D01*
X208821428Y-75738095D01*
X209107142Y-75642857D01*
X209821428Y-75642857D01*
X210107142Y-75547619D01*
X211535714Y-76404761D02*
X211535714Y-75071428D01*
X211535714Y-74404761D02*
X211392857Y-74500000D01*
X211535714Y-74595238D01*
X211678571Y-74500000D01*
X211535714Y-74404761D01*
X211535714Y-74595238D01*
X212964285Y-75071428D02*
X212964285Y-76404761D01*
X212964285Y-75261904D02*
X213107142Y-75166666D01*
X213392857Y-75071428D01*
X213821428Y-75071428D01*
X214107142Y-75166666D01*
X214250000Y-75357142D01*
X214250000Y-76404761D01*
X215535714Y-74595238D02*
X215678571Y-74500000D01*
X215964285Y-74404761D01*
X216678571Y-74404761D01*
X216964285Y-74500000D01*
X217107142Y-74595238D01*
X217250000Y-74785714D01*
X217250000Y-74976190D01*
X217107142Y-75261904D01*
X215392857Y-76404761D01*
X217250000Y-76404761D01*
D10*
D11*
X204892857Y-19404761D02*
X204892857Y-17404761D01*
X205892857Y-18833333D01*
X206892857Y-17404761D01*
X206892857Y-19404761D01*
X209607142Y-19404761D02*
X209607142Y-18357142D01*
X209464285Y-18166666D01*
X209178571Y-18071428D01*
X208607142Y-18071428D01*
X208321428Y-18166666D01*
X209607142Y-19309523D02*
X209321428Y-19404761D01*
X208607142Y-19404761D01*
X208321428Y-19309523D01*
X208178571Y-19119047D01*
X208178571Y-18928571D01*
X208321428Y-18738095D01*
X208607142Y-18642857D01*
X209321428Y-18642857D01*
X209607142Y-18547619D01*
X211035714Y-19404761D02*
X211035714Y-18071428D01*
X211035714Y-17404761D02*
X210892857Y-17500000D01*
X211035714Y-17595238D01*
X211178571Y-17500000D01*
X211035714Y-17404761D01*
X211035714Y-17595238D01*
X212464285Y-18071428D02*
X212464285Y-19404761D01*
X212464285Y-18261904D02*
X212607142Y-18166666D01*
X212892857Y-18071428D01*
X213321428Y-18071428D01*
X213607142Y-18166666D01*
X213750000Y-18357142D01*
X213750000Y-19404761D01*
X216750000Y-19404761D02*
X215035714Y-19404761D01*
X215892857Y-19404761D02*
X215892857Y-17404761D01*
X215607142Y-17690476D01*
X215321428Y-17880952D01*
X215035714Y-17976190D01*
M02*
