%TF.GenerationSoftware,KiCad,Pcbnew,(6.0.7)*%
%TF.CreationDate,2022-09-27T11:44:32+02:00*%
%TF.ProjectId,Frontpannels,46726f6e-7470-4616-9e6e-656c732e6b69,rev?*%
%TF.SameCoordinates,Original*%
%TF.FileFunction,Profile,NP*%
%FSLAX46Y46*%
G04 Gerber Fmt 4.6, Leading zero omitted, Abs format (unit mm)*
G04 Created by KiCad (PCBNEW (6.0.7)) date 2022-09-27 11:44:32*
%MOMM*%
%LPD*%
G01*
G04 APERTURE LIST*
%TA.AperFunction,Profile*%
%ADD10C,0.100000*%
%TD*%
%TA.AperFunction,Profile*%
%ADD11C,0.050000*%
%TD*%
G04 APERTURE END LIST*
D10*
X122349242Y-131500000D02*
G75*
G03*
X122349242Y-131500000I-1649242J0D01*
G01*
X155707987Y-40900000D02*
G75*
G03*
X155707987Y-40900000I-2507987J0D01*
G01*
X163725667Y-41000000D02*
G75*
G03*
X163725667Y-41000000I-3512834J0D01*
G01*
X168701999Y-69500000D02*
G75*
G03*
X168701999Y-69500000I-2501999J0D01*
G01*
X191790052Y-69812833D02*
G75*
G03*
X191790052Y-69812833I-3512834J0D01*
G01*
X183779217Y-69500000D02*
G75*
G03*
X183779217Y-69500000I-2501999J0D01*
G01*
X176800001Y-69800000D02*
G75*
G03*
X176800001Y-69800000I-3522783J0D01*
G01*
X191812834Y-97812833D02*
G75*
G03*
X191812834Y-97812833I-3512834J0D01*
G01*
X183801999Y-97500000D02*
G75*
G03*
X183801999Y-97500000I-2501999J0D01*
G01*
X176822783Y-97800000D02*
G75*
G03*
X176822783Y-97800000I-3522783J0D01*
G01*
X168807987Y-97500000D02*
G75*
G03*
X168807987Y-97500000I-2507987J0D01*
G01*
X176622783Y-127000000D02*
G75*
G03*
X176622783Y-127000000I-3522783J0D01*
G01*
X191701428Y-127000000D02*
G75*
G03*
X191701428Y-127000000I-3501428J0D01*
G01*
X190801428Y-114000000D02*
G75*
G03*
X190801428Y-114000000I-3501428J0D01*
G01*
X177700000Y-114000000D02*
G75*
G03*
X177700000Y-114000000I-3500000J0D01*
G01*
X190901428Y-85500000D02*
G75*
G03*
X190901428Y-85500000I-3501428J0D01*
G01*
X177800000Y-85500000D02*
G75*
G03*
X177800000Y-85500000I-3500000J0D01*
G01*
X177700000Y-57000000D02*
G75*
G03*
X177700000Y-57000000I-3500000J0D01*
G01*
X190801428Y-57000000D02*
G75*
G03*
X190801428Y-57000000I-3501428J0D01*
G01*
X220800000Y-29500000D02*
G75*
G03*
X220800000Y-29500000I-3600000J0D01*
G01*
X207800000Y-29500000D02*
G75*
G03*
X207800000Y-29500000I-3501428J0D01*
G01*
X190805710Y-29500000D02*
G75*
G03*
X190805710Y-29500000I-3505710J0D01*
G01*
X177805710Y-29500000D02*
G75*
G03*
X177805710Y-29500000I-3505710J0D01*
G01*
X161800000Y-29500000D02*
G75*
G03*
X161800000Y-29500000I-3500000J0D01*
G01*
X146801428Y-29500000D02*
G75*
G03*
X146801428Y-29500000I-3501428J0D01*
G01*
X130805710Y-29500000D02*
G75*
G03*
X130805710Y-29500000I-3505710J0D01*
G01*
X117800000Y-29500000D02*
G75*
G03*
X117800000Y-29500000I-3500000J0D01*
G01*
X101800000Y-29500000D02*
G75*
G03*
X101800000Y-29500000I-3500000J0D01*
G01*
X86801428Y-29500000D02*
G75*
G03*
X86801428Y-29500000I-3501428J0D01*
G01*
X70900000Y-29500000D02*
G75*
G03*
X70900000Y-29500000I-3600000J0D01*
G01*
X57901389Y-29500000D02*
G75*
G03*
X57901389Y-29500000I-3601389J0D01*
G01*
X41801428Y-29500000D02*
G75*
G03*
X41801428Y-29500000I-3501428J0D01*
G01*
X26800000Y-29500000D02*
G75*
G03*
X26800000Y-29500000I-3500000J0D01*
G01*
X20700000Y-41000000D02*
G75*
G03*
X20700000Y-41000000I-2500000J0D01*
G01*
X28800000Y-41000000D02*
G75*
G03*
X28800000Y-41000000I-3500000J0D01*
G01*
X35701999Y-41000000D02*
G75*
G03*
X35701999Y-41000000I-2501999J0D01*
G01*
X43800000Y-41000000D02*
G75*
G03*
X43800000Y-41000000I-3500000J0D01*
G01*
X50700000Y-41000000D02*
G75*
G03*
X50700000Y-41000000I-2500000J0D01*
G01*
X58801428Y-41000000D02*
G75*
G03*
X58801428Y-41000000I-3501428J0D01*
G01*
X65701999Y-41000000D02*
G75*
G03*
X65701999Y-41000000I-2501999J0D01*
G01*
X73800000Y-41000000D02*
G75*
G03*
X73800000Y-41000000I-3500000J0D01*
G01*
X80800000Y-41000000D02*
G75*
G03*
X80800000Y-41000000I-2500000J0D01*
G01*
X88805710Y-41000000D02*
G75*
G03*
X88805710Y-41000000I-3505710J0D01*
G01*
X95801999Y-41000000D02*
G75*
G03*
X95801999Y-41000000I-2501999J0D01*
G01*
X103700000Y-41000000D02*
G75*
G03*
X103700000Y-41000000I-3500000J0D01*
G01*
X110801999Y-41000000D02*
G75*
G03*
X110801999Y-41000000I-2501999J0D01*
G01*
X118800000Y-41000000D02*
G75*
G03*
X118800000Y-41000000I-3500000J0D01*
G01*
X125801999Y-41000000D02*
G75*
G03*
X125801999Y-41000000I-2501999J0D01*
G01*
X133801428Y-41000000D02*
G75*
G03*
X133801428Y-41000000I-3501428J0D01*
G01*
X140801999Y-41000000D02*
G75*
G03*
X140801999Y-41000000I-2501999J0D01*
G01*
X148800000Y-41000000D02*
G75*
G03*
X148800000Y-41000000I-3500000J0D01*
G01*
X170301999Y-41000000D02*
G75*
G03*
X170301999Y-41000000I-2501999J0D01*
G01*
X178805710Y-41200000D02*
G75*
G03*
X178805710Y-41200000I-3505710J0D01*
G01*
X185801999Y-41000000D02*
G75*
G03*
X185801999Y-41000000I-2501999J0D01*
G01*
X193800000Y-41300000D02*
G75*
G03*
X193800000Y-41300000I-3500000J0D01*
G01*
X26800000Y-53500000D02*
G75*
G03*
X26800000Y-53500000I-3500000J0D01*
G01*
X101800000Y-53500000D02*
G75*
G03*
X101800000Y-53500000I-3500000J0D01*
G01*
X86700000Y-53500000D02*
G75*
G03*
X86700000Y-53500000I-3500000J0D01*
G01*
X56800000Y-53500000D02*
G75*
G03*
X56800000Y-53500000I-3500000J0D01*
G01*
X43800000Y-53600000D02*
G75*
G03*
X43800000Y-53600000I-3500000J0D01*
G01*
X146800000Y-53500000D02*
G75*
G03*
X146800000Y-53500000I-3500000J0D01*
G01*
X161700000Y-53500000D02*
G75*
G03*
X161700000Y-53500000I-3500000J0D01*
G01*
X71800000Y-53500000D02*
G75*
G03*
X71800000Y-53500000I-3500000J0D01*
G01*
X116800000Y-53500000D02*
G75*
G03*
X116800000Y-53500000I-3500000J0D01*
G01*
X131800000Y-53500000D02*
G75*
G03*
X131800000Y-53500000I-3500000J0D01*
G01*
X26800000Y-62500000D02*
G75*
G03*
X26800000Y-62500000I-3500000J0D01*
G01*
X101800000Y-62500000D02*
G75*
G03*
X101800000Y-62500000I-3500000J0D01*
G01*
X86700000Y-62500000D02*
G75*
G03*
X86700000Y-62500000I-3500000J0D01*
G01*
X56800000Y-62500000D02*
G75*
G03*
X56800000Y-62500000I-3500000J0D01*
G01*
X41800000Y-62500000D02*
G75*
G03*
X41800000Y-62500000I-3500000J0D01*
G01*
X146800000Y-62500000D02*
G75*
G03*
X146800000Y-62500000I-3500000J0D01*
G01*
X161700000Y-62500000D02*
G75*
G03*
X161700000Y-62500000I-3500000J0D01*
G01*
X71800000Y-62500000D02*
G75*
G03*
X71800000Y-62500000I-3500000J0D01*
G01*
X116800000Y-62500000D02*
G75*
G03*
X116800000Y-62500000I-3500000J0D01*
G01*
X131800000Y-62500000D02*
G75*
G03*
X131800000Y-62500000I-3500000J0D01*
G01*
X26800000Y-75000000D02*
G75*
G03*
X26800000Y-75000000I-3500000J0D01*
G01*
X101800000Y-75000000D02*
G75*
G03*
X101800000Y-75000000I-3500000J0D01*
G01*
X86700000Y-75000000D02*
G75*
G03*
X86700000Y-75000000I-3500000J0D01*
G01*
X56800000Y-75000000D02*
G75*
G03*
X56800000Y-75000000I-3500000J0D01*
G01*
X41800000Y-75000000D02*
G75*
G03*
X41800000Y-75000000I-3500000J0D01*
G01*
X146800000Y-75000000D02*
G75*
G03*
X146800000Y-75000000I-3500000J0D01*
G01*
X161700000Y-75000000D02*
G75*
G03*
X161700000Y-75000000I-3500000J0D01*
G01*
X71800000Y-75000000D02*
G75*
G03*
X71800000Y-75000000I-3500000J0D01*
G01*
X116800000Y-75000000D02*
G75*
G03*
X116800000Y-75000000I-3500000J0D01*
G01*
X131800000Y-75000000D02*
G75*
G03*
X131800000Y-75000000I-3500000J0D01*
G01*
X26800000Y-84000000D02*
G75*
G03*
X26800000Y-84000000I-3500000J0D01*
G01*
X101800000Y-84000000D02*
G75*
G03*
X101800000Y-84000000I-3500000J0D01*
G01*
X86700000Y-84000000D02*
G75*
G03*
X86700000Y-84000000I-3500000J0D01*
G01*
X56800000Y-84000000D02*
G75*
G03*
X56800000Y-84000000I-3500000J0D01*
G01*
X41800000Y-84000000D02*
G75*
G03*
X41800000Y-84000000I-3500000J0D01*
G01*
X146800000Y-84000000D02*
G75*
G03*
X146800000Y-84000000I-3500000J0D01*
G01*
X161700000Y-84000000D02*
G75*
G03*
X161700000Y-84000000I-3500000J0D01*
G01*
X71800000Y-84000000D02*
G75*
G03*
X71800000Y-84000000I-3500000J0D01*
G01*
X116800000Y-84000000D02*
G75*
G03*
X116800000Y-84000000I-3500000J0D01*
G01*
X131800000Y-84000000D02*
G75*
G03*
X131800000Y-84000000I-3500000J0D01*
G01*
X26800000Y-96500000D02*
G75*
G03*
X26800000Y-96500000I-3500000J0D01*
G01*
X101800000Y-96500000D02*
G75*
G03*
X101800000Y-96500000I-3500000J0D01*
G01*
X86700000Y-96500000D02*
G75*
G03*
X86700000Y-96500000I-3500000J0D01*
G01*
X56800000Y-96500000D02*
G75*
G03*
X56800000Y-96500000I-3500000J0D01*
G01*
X41800000Y-96500000D02*
G75*
G03*
X41800000Y-96500000I-3500000J0D01*
G01*
X146800000Y-96500000D02*
G75*
G03*
X146800000Y-96500000I-3500000J0D01*
G01*
X161700000Y-96500000D02*
G75*
G03*
X161700000Y-96500000I-3500000J0D01*
G01*
X71800000Y-96500000D02*
G75*
G03*
X71800000Y-96500000I-3500000J0D01*
G01*
X116800000Y-96500000D02*
G75*
G03*
X116800000Y-96500000I-3500000J0D01*
G01*
X131800000Y-96500000D02*
G75*
G03*
X131800000Y-96500000I-3500000J0D01*
G01*
X26800000Y-105500000D02*
G75*
G03*
X26800000Y-105500000I-3500000J0D01*
G01*
X101800000Y-105500000D02*
G75*
G03*
X101800000Y-105500000I-3500000J0D01*
G01*
X86700000Y-105500000D02*
G75*
G03*
X86700000Y-105500000I-3500000J0D01*
G01*
X56800000Y-105500000D02*
G75*
G03*
X56800000Y-105500000I-3500000J0D01*
G01*
X41800000Y-105500000D02*
G75*
G03*
X41800000Y-105500000I-3500000J0D01*
G01*
X146800000Y-105500000D02*
G75*
G03*
X146800000Y-105500000I-3500000J0D01*
G01*
X161700000Y-105500000D02*
G75*
G03*
X161700000Y-105500000I-3500000J0D01*
G01*
X71800000Y-105500000D02*
G75*
G03*
X71800000Y-105500000I-3500000J0D01*
G01*
X116800000Y-105500000D02*
G75*
G03*
X116800000Y-105500000I-3500000J0D01*
G01*
X131800000Y-105500000D02*
G75*
G03*
X131800000Y-105500000I-3500000J0D01*
G01*
X26800000Y-118000000D02*
G75*
G03*
X26800000Y-118000000I-3500000J0D01*
G01*
X101800000Y-118000000D02*
G75*
G03*
X101800000Y-118000000I-3500000J0D01*
G01*
X86700000Y-118000000D02*
G75*
G03*
X86700000Y-118000000I-3500000J0D01*
G01*
X56800000Y-118000000D02*
G75*
G03*
X56800000Y-118000000I-3500000J0D01*
G01*
X41800000Y-118000000D02*
G75*
G03*
X41800000Y-118000000I-3500000J0D01*
G01*
X146800000Y-118000000D02*
G75*
G03*
X146800000Y-118000000I-3500000J0D01*
G01*
X161700000Y-118000000D02*
G75*
G03*
X161700000Y-118000000I-3500000J0D01*
G01*
X71800000Y-118000000D02*
G75*
G03*
X71800000Y-118000000I-3500000J0D01*
G01*
X116800000Y-118000000D02*
G75*
G03*
X116800000Y-118000000I-3500000J0D01*
G01*
X131800000Y-118000000D02*
G75*
G03*
X131800000Y-118000000I-3500000J0D01*
G01*
X161700000Y-127000000D02*
G75*
G03*
X161700000Y-127000000I-3500000J0D01*
G01*
X146800000Y-127000000D02*
G75*
G03*
X146800000Y-127000000I-3500000J0D01*
G01*
X131800000Y-127000000D02*
G75*
G03*
X131800000Y-127000000I-3500000J0D01*
G01*
X116800000Y-127000000D02*
G75*
G03*
X116800000Y-127000000I-3500000J0D01*
G01*
X101800000Y-127000000D02*
G75*
G03*
X101800000Y-127000000I-3500000J0D01*
G01*
X86700000Y-127000000D02*
G75*
G03*
X86700000Y-127000000I-3500000J0D01*
G01*
X71800000Y-127000000D02*
G75*
G03*
X71800000Y-127000000I-3500000J0D01*
G01*
X56800000Y-127000000D02*
G75*
G03*
X56800000Y-127000000I-3500000J0D01*
G01*
X41800000Y-127000000D02*
G75*
G03*
X41800000Y-127000000I-3500000J0D01*
G01*
X26800000Y-127000000D02*
G75*
G03*
X26800000Y-127000000I-3500000J0D01*
G01*
X229700000Y-14500000D02*
X13700000Y-14500000D01*
X13700000Y-14500000D02*
X13700000Y-144000000D01*
X13700000Y-144000000D02*
X229700000Y-144000000D01*
X229700000Y-144000000D02*
X229700000Y-14500000D01*
X207800000Y-29500000D02*
G75*
G03*
X207800000Y-29500000I-3500000J0D01*
G01*
X220700000Y-29500000D02*
G75*
G03*
X220700000Y-29500000I-3500000J0D01*
G01*
X206300000Y-41200000D02*
G75*
G03*
X206300000Y-41200000I-3500000J0D01*
G01*
X216300000Y-41100000D02*
G75*
G03*
X216300000Y-41100000I-3500000J0D01*
G01*
X206200000Y-54700000D02*
G75*
G03*
X206200000Y-54700000I-3500000J0D01*
G01*
X216200000Y-54700000D02*
G75*
G03*
X216200000Y-54700000I-3500000J0D01*
G01*
X207700000Y-69500000D02*
G75*
G03*
X207700000Y-69500000I-3500000J0D01*
G01*
X220800000Y-69500000D02*
G75*
G03*
X220800000Y-69500000I-3500000J0D01*
G01*
X209300000Y-81200000D02*
G75*
G03*
X209300000Y-81200000I-3500000J0D01*
G01*
X219300000Y-81200000D02*
G75*
G03*
X219300000Y-81200000I-3500000J0D01*
G01*
X209300000Y-94200000D02*
G75*
G03*
X209300000Y-94200000I-3500000J0D01*
G01*
X219300000Y-94300000D02*
G75*
G03*
X219300000Y-94300000I-3500000J0D01*
G01*
X225400000Y-123000000D02*
G75*
G03*
X225400000Y-123000000I-3100000J0D01*
G01*
X207000000Y-123000000D02*
G75*
G03*
X207000000Y-123000000I-3200000J0D01*
G01*
X214200000Y-109500000D02*
G75*
G03*
X214200000Y-109500000I-3500000J0D01*
G01*
X222200000Y-114200000D02*
G75*
G03*
X222200000Y-114200000I-1500000J0D01*
G01*
X222200000Y-109200000D02*
G75*
G03*
X222200000Y-109200000I-1500000J0D01*
G01*
X222200000Y-104200000D02*
G75*
G03*
X222200000Y-104200000I-1500000J0D01*
G01*
X202200000Y-104200000D02*
G75*
G03*
X202200000Y-104200000I-1500000J0D01*
G01*
X202200000Y-109200000D02*
G75*
G03*
X202200000Y-109200000I-1500000J0D01*
G01*
X202200000Y-114200000D02*
G75*
G03*
X202200000Y-114200000I-1500000J0D01*
G01*
X166300000Y-114500000D02*
G75*
G03*
X166300000Y-114500000I-1500000J0D01*
G01*
X183807987Y-127000000D02*
G75*
G03*
X183807987Y-127000000I-2507987J0D01*
G01*
X168701999Y-127000000D02*
G75*
G03*
X168701999Y-127000000I-2501999J0D01*
G01*
X77300000Y-131500000D02*
G75*
G03*
X77300000Y-131500000I-1600000J0D01*
G01*
X123600000Y-141000000D02*
G75*
G03*
X123600000Y-141000000I-1800000J0D01*
G01*
X216500000Y-141000000D02*
G75*
G03*
X216500000Y-141000000I-1700000J0D01*
G01*
X227900000Y-114000000D02*
G75*
G03*
X227900000Y-114000000I-1600000J0D01*
G01*
X227900000Y-26500000D02*
G75*
G03*
X227900000Y-26500000I-1600000J0D01*
G01*
X222200000Y-17500000D02*
G75*
G03*
X222200000Y-17500000I-1700000J0D01*
G01*
X123400000Y-17500000D02*
G75*
G03*
X123400000Y-17500000I-1700000J0D01*
G01*
X137400000Y-66500000D02*
G75*
G03*
X137400000Y-66500000I-1600000J0D01*
G01*
X107400000Y-66500000D02*
G75*
G03*
X107400000Y-66500000I-1600000J0D01*
G01*
X77400000Y-66500000D02*
G75*
G03*
X77400000Y-66500000I-1600000J0D01*
G01*
X77400000Y-66500000D02*
G75*
G03*
X77400000Y-66500000I-1600000J0D01*
G01*
X47403122Y-66500000D02*
G75*
G03*
X47403122Y-66500000I-1603122J0D01*
G01*
X17912452Y-66500000D02*
G75*
G03*
X17912452Y-66500000I-1612452J0D01*
G01*
X18400000Y-131500000D02*
G75*
G03*
X18400000Y-131500000I-1600000J0D01*
G01*
X30400000Y-141000000D02*
G75*
G03*
X30400000Y-141000000I-1700000J0D01*
G01*
X220800000Y-29500000D02*
G75*
G03*
X220800000Y-29500000I-3501428J0D01*
G01*
X222600000Y-41400000D02*
X225900000Y-41400000D01*
X225900000Y-41400000D02*
X225900000Y-43600000D01*
X225900000Y-43600000D02*
X222600000Y-43600000D01*
X222600000Y-43600000D02*
X222600000Y-41400000D01*
D11*
X291450000Y-123750000D02*
G75*
G03*
X291450000Y-123750000I-11500000J0D01*
G01*
X243450000Y-17500000D02*
G75*
G03*
X243450000Y-17500000I-1750000J0D01*
G01*
X294950000Y-141250000D02*
G75*
G03*
X294950000Y-141250000I-1750000J0D01*
G01*
X245450000Y-70750000D02*
G75*
G03*
X245450000Y-70750000I-4500000J0D01*
G01*
X280950000Y-35250000D02*
G75*
G03*
X280950000Y-35250000I-4500000J0D01*
G01*
X301450000Y-107750000D02*
G75*
G03*
X301450000Y-107750000I-3250000J0D01*
G01*
X297200000Y-53000000D02*
G75*
G03*
X297200000Y-53000000I-3000000J0D01*
G01*
X245450000Y-53000000D02*
G75*
G03*
X245450000Y-53000000I-4500000J0D01*
G01*
X280950000Y-70750000D02*
G75*
G03*
X280950000Y-70750000I-4500000J0D01*
G01*
X291450000Y-93750000D02*
G75*
G03*
X291450000Y-93750000I-11500000J0D01*
G01*
X291200000Y-103750000D02*
G75*
G03*
X291200000Y-103750000I-1500000J0D01*
G01*
X263200000Y-35250000D02*
G75*
G03*
X263200000Y-35250000I-4500000J0D01*
G01*
X298706939Y-35250000D02*
G75*
G03*
X298706939Y-35250000I-4506939J0D01*
G01*
X263200000Y-53000000D02*
G75*
G03*
X263200000Y-53000000I-4500000J0D01*
G01*
X245450000Y-88500000D02*
G75*
G03*
X245450000Y-88500000I-4500000J0D01*
G01*
X243450000Y-141000000D02*
G75*
G03*
X243450000Y-141000000I-1750000J0D01*
G01*
X294950000Y-17500000D02*
G75*
G03*
X294950000Y-17500000I-1750000J0D01*
G01*
X263206939Y-70750000D02*
G75*
G03*
X263206939Y-70750000I-4506939J0D01*
G01*
X263200000Y-124000000D02*
G75*
G03*
X263200000Y-124000000I-4500000J0D01*
G01*
X245450000Y-106250000D02*
G75*
G03*
X245450000Y-106250000I-4500000J0D01*
G01*
X303200000Y-14500000D02*
X231700000Y-14500000D01*
X231700000Y-14500000D02*
X231700000Y-144250000D01*
X231700000Y-144250000D02*
X303200000Y-144250000D01*
X303200000Y-144250000D02*
X303200000Y-14500000D01*
X291200000Y-133750000D02*
G75*
G03*
X291200000Y-133750000I-1500000J0D01*
G01*
X245450000Y-124000000D02*
G75*
G03*
X245450000Y-124000000I-4500000J0D01*
G01*
X271450000Y-83750000D02*
G75*
G03*
X271450000Y-83750000I-1500000J0D01*
G01*
X271450000Y-113750000D02*
G75*
G03*
X271450000Y-113750000I-1500000J0D01*
G01*
X298700000Y-70750000D02*
G75*
G03*
X298700000Y-70750000I-4500000J0D01*
G01*
X280950000Y-53000000D02*
G75*
G03*
X280950000Y-53000000I-4500000J0D01*
G01*
X245512072Y-35250000D02*
G75*
G03*
X245512072Y-35250000I-4562072J0D01*
G01*
D10*
X30500000Y-18000000D02*
G75*
G03*
X30500000Y-18000000I-1750000J0D01*
G01*
M02*
