%TF.GenerationSoftware,KiCad,Pcbnew,(6.0.6)*%
%TF.CreationDate,2022-09-20T12:49:51+02:00*%
%TF.ProjectId,Ausgangsstufe,41757367-616e-4677-9373-747566652e6b,rev?*%
%TF.SameCoordinates,Original*%
%TF.FileFunction,Legend,Bot*%
%TF.FilePolarity,Positive*%
%FSLAX46Y46*%
G04 Gerber Fmt 4.6, Leading zero omitted, Abs format (unit mm)*
G04 Created by KiCad (PCBNEW (6.0.6)) date 2022-09-20 12:49:51*
%MOMM*%
%LPD*%
G01*
G04 APERTURE LIST*
%ADD10C,0.150000*%
%ADD11C,0.254000*%
%ADD12C,0.120000*%
%ADD13C,0.100000*%
%ADD14C,0.200000*%
G04 APERTURE END LIST*
D10*
%TO.C,R404*%
X210807547Y-82872380D02*
X211140880Y-82396190D01*
X211378976Y-82872380D02*
X211378976Y-81872380D01*
X210998023Y-81872380D01*
X210902785Y-81920000D01*
X210855166Y-81967619D01*
X210807547Y-82062857D01*
X210807547Y-82205714D01*
X210855166Y-82300952D01*
X210902785Y-82348571D01*
X210998023Y-82396190D01*
X211378976Y-82396190D01*
X209950404Y-82205714D02*
X209950404Y-82872380D01*
X210188500Y-81824761D02*
X210426595Y-82539047D01*
X209807547Y-82539047D01*
X209236119Y-81872380D02*
X209140880Y-81872380D01*
X209045642Y-81920000D01*
X208998023Y-81967619D01*
X208950404Y-82062857D01*
X208902785Y-82253333D01*
X208902785Y-82491428D01*
X208950404Y-82681904D01*
X208998023Y-82777142D01*
X209045642Y-82824761D01*
X209140880Y-82872380D01*
X209236119Y-82872380D01*
X209331357Y-82824761D01*
X209378976Y-82777142D01*
X209426595Y-82681904D01*
X209474214Y-82491428D01*
X209474214Y-82253333D01*
X209426595Y-82062857D01*
X209378976Y-81967619D01*
X209331357Y-81920000D01*
X209236119Y-81872380D01*
X208045642Y-82205714D02*
X208045642Y-82872380D01*
X208283738Y-81824761D02*
X208521833Y-82539047D01*
X207902785Y-82539047D01*
%TO.C,R403*%
X177812547Y-80532380D02*
X178145880Y-80056190D01*
X178383976Y-80532380D02*
X178383976Y-79532380D01*
X178003023Y-79532380D01*
X177907785Y-79580000D01*
X177860166Y-79627619D01*
X177812547Y-79722857D01*
X177812547Y-79865714D01*
X177860166Y-79960952D01*
X177907785Y-80008571D01*
X178003023Y-80056190D01*
X178383976Y-80056190D01*
X176955404Y-79865714D02*
X176955404Y-80532380D01*
X177193500Y-79484761D02*
X177431595Y-80199047D01*
X176812547Y-80199047D01*
X176241119Y-79532380D02*
X176145880Y-79532380D01*
X176050642Y-79580000D01*
X176003023Y-79627619D01*
X175955404Y-79722857D01*
X175907785Y-79913333D01*
X175907785Y-80151428D01*
X175955404Y-80341904D01*
X176003023Y-80437142D01*
X176050642Y-80484761D01*
X176145880Y-80532380D01*
X176241119Y-80532380D01*
X176336357Y-80484761D01*
X176383976Y-80437142D01*
X176431595Y-80341904D01*
X176479214Y-80151428D01*
X176479214Y-79913333D01*
X176431595Y-79722857D01*
X176383976Y-79627619D01*
X176336357Y-79580000D01*
X176241119Y-79532380D01*
X175574452Y-79532380D02*
X174955404Y-79532380D01*
X175288738Y-79913333D01*
X175145880Y-79913333D01*
X175050642Y-79960952D01*
X175003023Y-80008571D01*
X174955404Y-80103809D01*
X174955404Y-80341904D01*
X175003023Y-80437142D01*
X175050642Y-80484761D01*
X175145880Y-80532380D01*
X175431595Y-80532380D01*
X175526833Y-80484761D01*
X175574452Y-80437142D01*
%TO.C,R402*%
X210807547Y-85872380D02*
X211140880Y-85396190D01*
X211378976Y-85872380D02*
X211378976Y-84872380D01*
X210998023Y-84872380D01*
X210902785Y-84920000D01*
X210855166Y-84967619D01*
X210807547Y-85062857D01*
X210807547Y-85205714D01*
X210855166Y-85300952D01*
X210902785Y-85348571D01*
X210998023Y-85396190D01*
X211378976Y-85396190D01*
X209950404Y-85205714D02*
X209950404Y-85872380D01*
X210188500Y-84824761D02*
X210426595Y-85539047D01*
X209807547Y-85539047D01*
X209236119Y-84872380D02*
X209140880Y-84872380D01*
X209045642Y-84920000D01*
X208998023Y-84967619D01*
X208950404Y-85062857D01*
X208902785Y-85253333D01*
X208902785Y-85491428D01*
X208950404Y-85681904D01*
X208998023Y-85777142D01*
X209045642Y-85824761D01*
X209140880Y-85872380D01*
X209236119Y-85872380D01*
X209331357Y-85824761D01*
X209378976Y-85777142D01*
X209426595Y-85681904D01*
X209474214Y-85491428D01*
X209474214Y-85253333D01*
X209426595Y-85062857D01*
X209378976Y-84967619D01*
X209331357Y-84920000D01*
X209236119Y-84872380D01*
X208521833Y-84967619D02*
X208474214Y-84920000D01*
X208378976Y-84872380D01*
X208140880Y-84872380D01*
X208045642Y-84920000D01*
X207998023Y-84967619D01*
X207950404Y-85062857D01*
X207950404Y-85158095D01*
X207998023Y-85300952D01*
X208569452Y-85872380D01*
X207950404Y-85872380D01*
%TO.C,R401*%
X177907547Y-84032380D02*
X178240880Y-83556190D01*
X178478976Y-84032380D02*
X178478976Y-83032380D01*
X178098023Y-83032380D01*
X178002785Y-83080000D01*
X177955166Y-83127619D01*
X177907547Y-83222857D01*
X177907547Y-83365714D01*
X177955166Y-83460952D01*
X178002785Y-83508571D01*
X178098023Y-83556190D01*
X178478976Y-83556190D01*
X177050404Y-83365714D02*
X177050404Y-84032380D01*
X177288500Y-82984761D02*
X177526595Y-83699047D01*
X176907547Y-83699047D01*
X176336119Y-83032380D02*
X176240880Y-83032380D01*
X176145642Y-83080000D01*
X176098023Y-83127619D01*
X176050404Y-83222857D01*
X176002785Y-83413333D01*
X176002785Y-83651428D01*
X176050404Y-83841904D01*
X176098023Y-83937142D01*
X176145642Y-83984761D01*
X176240880Y-84032380D01*
X176336119Y-84032380D01*
X176431357Y-83984761D01*
X176478976Y-83937142D01*
X176526595Y-83841904D01*
X176574214Y-83651428D01*
X176574214Y-83413333D01*
X176526595Y-83222857D01*
X176478976Y-83127619D01*
X176431357Y-83080000D01*
X176336119Y-83032380D01*
X175050404Y-84032380D02*
X175621833Y-84032380D01*
X175336119Y-84032380D02*
X175336119Y-83032380D01*
X175431357Y-83175238D01*
X175526595Y-83270476D01*
X175621833Y-83318095D01*
%TO.C,J414*%
X201190880Y-65024285D02*
X201905166Y-65024285D01*
X202048023Y-64976666D01*
X202143261Y-64881428D01*
X202190880Y-64738571D01*
X202190880Y-64643333D01*
X201524214Y-65929047D02*
X202190880Y-65929047D01*
X201143261Y-65690952D02*
X201857547Y-65452857D01*
X201857547Y-66071904D01*
X202190880Y-66976666D02*
X202190880Y-66405238D01*
X202190880Y-66690952D02*
X201190880Y-66690952D01*
X201333738Y-66595714D01*
X201428976Y-66500476D01*
X201476595Y-66405238D01*
X201524214Y-67833809D02*
X202190880Y-67833809D01*
X201143261Y-67595714D02*
X201857547Y-67357619D01*
X201857547Y-67976666D01*
D11*
%TO.C,J420*%
X130646357Y-77334523D02*
X130646357Y-78241666D01*
X130706833Y-78423095D01*
X130827785Y-78544047D01*
X131009214Y-78604523D01*
X131130166Y-78604523D01*
X129497309Y-77757857D02*
X129497309Y-78604523D01*
X129799690Y-77274047D02*
X130102071Y-78181190D01*
X129315880Y-78181190D01*
X128892547Y-77455476D02*
X128832071Y-77395000D01*
X128711119Y-77334523D01*
X128408738Y-77334523D01*
X128287785Y-77395000D01*
X128227309Y-77455476D01*
X128166833Y-77576428D01*
X128166833Y-77697380D01*
X128227309Y-77878809D01*
X128953023Y-78604523D01*
X128166833Y-78604523D01*
X127380642Y-77334523D02*
X127259690Y-77334523D01*
X127138738Y-77395000D01*
X127078261Y-77455476D01*
X127017785Y-77576428D01*
X126957309Y-77818333D01*
X126957309Y-78120714D01*
X127017785Y-78362619D01*
X127078261Y-78483571D01*
X127138738Y-78544047D01*
X127259690Y-78604523D01*
X127380642Y-78604523D01*
X127501595Y-78544047D01*
X127562071Y-78483571D01*
X127622547Y-78362619D01*
X127683023Y-78120714D01*
X127683023Y-77818333D01*
X127622547Y-77576428D01*
X127562071Y-77455476D01*
X127501595Y-77395000D01*
X127380642Y-77334523D01*
%TO.C,J405*%
X166146357Y-41834523D02*
X166146357Y-42741666D01*
X166206833Y-42923095D01*
X166327785Y-43044047D01*
X166509214Y-43104523D01*
X166630166Y-43104523D01*
X164997309Y-42257857D02*
X164997309Y-43104523D01*
X165299690Y-41774047D02*
X165602071Y-42681190D01*
X164815880Y-42681190D01*
X164090166Y-41834523D02*
X163969214Y-41834523D01*
X163848261Y-41895000D01*
X163787785Y-41955476D01*
X163727309Y-42076428D01*
X163666833Y-42318333D01*
X163666833Y-42620714D01*
X163727309Y-42862619D01*
X163787785Y-42983571D01*
X163848261Y-43044047D01*
X163969214Y-43104523D01*
X164090166Y-43104523D01*
X164211119Y-43044047D01*
X164271595Y-42983571D01*
X164332071Y-42862619D01*
X164392547Y-42620714D01*
X164392547Y-42318333D01*
X164332071Y-42076428D01*
X164271595Y-41955476D01*
X164211119Y-41895000D01*
X164090166Y-41834523D01*
X162517785Y-41834523D02*
X163122547Y-41834523D01*
X163183023Y-42439285D01*
X163122547Y-42378809D01*
X163001595Y-42318333D01*
X162699214Y-42318333D01*
X162578261Y-42378809D01*
X162517785Y-42439285D01*
X162457309Y-42560238D01*
X162457309Y-42862619D01*
X162517785Y-42983571D01*
X162578261Y-43044047D01*
X162699214Y-43104523D01*
X163001595Y-43104523D01*
X163122547Y-43044047D01*
X163183023Y-42983571D01*
%TO.C,J415*%
X166146357Y-59584523D02*
X166146357Y-60491666D01*
X166206833Y-60673095D01*
X166327785Y-60794047D01*
X166509214Y-60854523D01*
X166630166Y-60854523D01*
X164997309Y-60007857D02*
X164997309Y-60854523D01*
X165299690Y-59524047D02*
X165602071Y-60431190D01*
X164815880Y-60431190D01*
X163666833Y-60854523D02*
X164392547Y-60854523D01*
X164029690Y-60854523D02*
X164029690Y-59584523D01*
X164150642Y-59765952D01*
X164271595Y-59886904D01*
X164392547Y-59947380D01*
X162517785Y-59584523D02*
X163122547Y-59584523D01*
X163183023Y-60189285D01*
X163122547Y-60128809D01*
X163001595Y-60068333D01*
X162699214Y-60068333D01*
X162578261Y-60128809D01*
X162517785Y-60189285D01*
X162457309Y-60310238D01*
X162457309Y-60612619D01*
X162517785Y-60733571D01*
X162578261Y-60794047D01*
X162699214Y-60854523D01*
X163001595Y-60854523D01*
X163122547Y-60794047D01*
X163183023Y-60733571D01*
%TO.C,J408*%
X219396357Y-24084523D02*
X219396357Y-24991666D01*
X219456833Y-25173095D01*
X219577785Y-25294047D01*
X219759214Y-25354523D01*
X219880166Y-25354523D01*
X218247309Y-24507857D02*
X218247309Y-25354523D01*
X218549690Y-24024047D02*
X218852071Y-24931190D01*
X218065880Y-24931190D01*
X217340166Y-24084523D02*
X217219214Y-24084523D01*
X217098261Y-24145000D01*
X217037785Y-24205476D01*
X216977309Y-24326428D01*
X216916833Y-24568333D01*
X216916833Y-24870714D01*
X216977309Y-25112619D01*
X217037785Y-25233571D01*
X217098261Y-25294047D01*
X217219214Y-25354523D01*
X217340166Y-25354523D01*
X217461119Y-25294047D01*
X217521595Y-25233571D01*
X217582071Y-25112619D01*
X217642547Y-24870714D01*
X217642547Y-24568333D01*
X217582071Y-24326428D01*
X217521595Y-24205476D01*
X217461119Y-24145000D01*
X217340166Y-24084523D01*
X216191119Y-24628809D02*
X216312071Y-24568333D01*
X216372547Y-24507857D01*
X216433023Y-24386904D01*
X216433023Y-24326428D01*
X216372547Y-24205476D01*
X216312071Y-24145000D01*
X216191119Y-24084523D01*
X215949214Y-24084523D01*
X215828261Y-24145000D01*
X215767785Y-24205476D01*
X215707309Y-24326428D01*
X215707309Y-24386904D01*
X215767785Y-24507857D01*
X215828261Y-24568333D01*
X215949214Y-24628809D01*
X216191119Y-24628809D01*
X216312071Y-24689285D01*
X216372547Y-24749761D01*
X216433023Y-24870714D01*
X216433023Y-25112619D01*
X216372547Y-25233571D01*
X216312071Y-25294047D01*
X216191119Y-25354523D01*
X215949214Y-25354523D01*
X215828261Y-25294047D01*
X215767785Y-25233571D01*
X215707309Y-25112619D01*
X215707309Y-24870714D01*
X215767785Y-24749761D01*
X215828261Y-24689285D01*
X215949214Y-24628809D01*
%TO.C,J417*%
X130646357Y-59584523D02*
X130646357Y-60491666D01*
X130706833Y-60673095D01*
X130827785Y-60794047D01*
X131009214Y-60854523D01*
X131130166Y-60854523D01*
X129497309Y-60007857D02*
X129497309Y-60854523D01*
X129799690Y-59524047D02*
X130102071Y-60431190D01*
X129315880Y-60431190D01*
X128166833Y-60854523D02*
X128892547Y-60854523D01*
X128529690Y-60854523D02*
X128529690Y-59584523D01*
X128650642Y-59765952D01*
X128771595Y-59886904D01*
X128892547Y-59947380D01*
X127743500Y-59584523D02*
X126896833Y-59584523D01*
X127441119Y-60854523D01*
%TO.C,J409*%
X219396357Y-41834523D02*
X219396357Y-42741666D01*
X219456833Y-42923095D01*
X219577785Y-43044047D01*
X219759214Y-43104523D01*
X219880166Y-43104523D01*
X218247309Y-42257857D02*
X218247309Y-43104523D01*
X218549690Y-41774047D02*
X218852071Y-42681190D01*
X218065880Y-42681190D01*
X217340166Y-41834523D02*
X217219214Y-41834523D01*
X217098261Y-41895000D01*
X217037785Y-41955476D01*
X216977309Y-42076428D01*
X216916833Y-42318333D01*
X216916833Y-42620714D01*
X216977309Y-42862619D01*
X217037785Y-42983571D01*
X217098261Y-43044047D01*
X217219214Y-43104523D01*
X217340166Y-43104523D01*
X217461119Y-43044047D01*
X217521595Y-42983571D01*
X217582071Y-42862619D01*
X217642547Y-42620714D01*
X217642547Y-42318333D01*
X217582071Y-42076428D01*
X217521595Y-41955476D01*
X217461119Y-41895000D01*
X217340166Y-41834523D01*
X216312071Y-43104523D02*
X216070166Y-43104523D01*
X215949214Y-43044047D01*
X215888738Y-42983571D01*
X215767785Y-42802142D01*
X215707309Y-42560238D01*
X215707309Y-42076428D01*
X215767785Y-41955476D01*
X215828261Y-41895000D01*
X215949214Y-41834523D01*
X216191119Y-41834523D01*
X216312071Y-41895000D01*
X216372547Y-41955476D01*
X216433023Y-42076428D01*
X216433023Y-42378809D01*
X216372547Y-42499761D01*
X216312071Y-42560238D01*
X216191119Y-42620714D01*
X215949214Y-42620714D01*
X215828261Y-42560238D01*
X215767785Y-42499761D01*
X215707309Y-42378809D01*
%TO.C,J419*%
X148621357Y-81554523D02*
X148621357Y-82461666D01*
X148681833Y-82643095D01*
X148802785Y-82764047D01*
X148984214Y-82824523D01*
X149105166Y-82824523D01*
X147472309Y-81977857D02*
X147472309Y-82824523D01*
X147774690Y-81494047D02*
X148077071Y-82401190D01*
X147290880Y-82401190D01*
X146141833Y-82824523D02*
X146867547Y-82824523D01*
X146504690Y-82824523D02*
X146504690Y-81554523D01*
X146625642Y-81735952D01*
X146746595Y-81856904D01*
X146867547Y-81917380D01*
X145537071Y-82824523D02*
X145295166Y-82824523D01*
X145174214Y-82764047D01*
X145113738Y-82703571D01*
X144992785Y-82522142D01*
X144932309Y-82280238D01*
X144932309Y-81796428D01*
X144992785Y-81675476D01*
X145053261Y-81615000D01*
X145174214Y-81554523D01*
X145416119Y-81554523D01*
X145537071Y-81615000D01*
X145597547Y-81675476D01*
X145658023Y-81796428D01*
X145658023Y-82098809D01*
X145597547Y-82219761D01*
X145537071Y-82280238D01*
X145416119Y-82340714D01*
X145174214Y-82340714D01*
X145053261Y-82280238D01*
X144992785Y-82219761D01*
X144932309Y-82098809D01*
%TO.C,J403*%
X148396357Y-24084523D02*
X148396357Y-24991666D01*
X148456833Y-25173095D01*
X148577785Y-25294047D01*
X148759214Y-25354523D01*
X148880166Y-25354523D01*
X147247309Y-24507857D02*
X147247309Y-25354523D01*
X147549690Y-24024047D02*
X147852071Y-24931190D01*
X147065880Y-24931190D01*
X146340166Y-24084523D02*
X146219214Y-24084523D01*
X146098261Y-24145000D01*
X146037785Y-24205476D01*
X145977309Y-24326428D01*
X145916833Y-24568333D01*
X145916833Y-24870714D01*
X145977309Y-25112619D01*
X146037785Y-25233571D01*
X146098261Y-25294047D01*
X146219214Y-25354523D01*
X146340166Y-25354523D01*
X146461119Y-25294047D01*
X146521595Y-25233571D01*
X146582071Y-25112619D01*
X146642547Y-24870714D01*
X146642547Y-24568333D01*
X146582071Y-24326428D01*
X146521595Y-24205476D01*
X146461119Y-24145000D01*
X146340166Y-24084523D01*
X145493500Y-24084523D02*
X144707309Y-24084523D01*
X145130642Y-24568333D01*
X144949214Y-24568333D01*
X144828261Y-24628809D01*
X144767785Y-24689285D01*
X144707309Y-24810238D01*
X144707309Y-25112619D01*
X144767785Y-25233571D01*
X144828261Y-25294047D01*
X144949214Y-25354523D01*
X145312071Y-25354523D01*
X145433023Y-25294047D01*
X145493500Y-25233571D01*
%TO.C,J404*%
X166146357Y-24084523D02*
X166146357Y-24991666D01*
X166206833Y-25173095D01*
X166327785Y-25294047D01*
X166509214Y-25354523D01*
X166630166Y-25354523D01*
X164997309Y-24507857D02*
X164997309Y-25354523D01*
X165299690Y-24024047D02*
X165602071Y-24931190D01*
X164815880Y-24931190D01*
X164090166Y-24084523D02*
X163969214Y-24084523D01*
X163848261Y-24145000D01*
X163787785Y-24205476D01*
X163727309Y-24326428D01*
X163666833Y-24568333D01*
X163666833Y-24870714D01*
X163727309Y-25112619D01*
X163787785Y-25233571D01*
X163848261Y-25294047D01*
X163969214Y-25354523D01*
X164090166Y-25354523D01*
X164211119Y-25294047D01*
X164271595Y-25233571D01*
X164332071Y-25112619D01*
X164392547Y-24870714D01*
X164392547Y-24568333D01*
X164332071Y-24326428D01*
X164271595Y-24205476D01*
X164211119Y-24145000D01*
X164090166Y-24084523D01*
X162578261Y-24507857D02*
X162578261Y-25354523D01*
X162880642Y-24024047D02*
X163183023Y-24931190D01*
X162396833Y-24931190D01*
%TO.C,J416*%
X166146357Y-77334523D02*
X166146357Y-78241666D01*
X166206833Y-78423095D01*
X166327785Y-78544047D01*
X166509214Y-78604523D01*
X166630166Y-78604523D01*
X164997309Y-77757857D02*
X164997309Y-78604523D01*
X165299690Y-77274047D02*
X165602071Y-78181190D01*
X164815880Y-78181190D01*
X163666833Y-78604523D02*
X164392547Y-78604523D01*
X164029690Y-78604523D02*
X164029690Y-77334523D01*
X164150642Y-77515952D01*
X164271595Y-77636904D01*
X164392547Y-77697380D01*
X162578261Y-77334523D02*
X162820166Y-77334523D01*
X162941119Y-77395000D01*
X163001595Y-77455476D01*
X163122547Y-77636904D01*
X163183023Y-77878809D01*
X163183023Y-78362619D01*
X163122547Y-78483571D01*
X163062071Y-78544047D01*
X162941119Y-78604523D01*
X162699214Y-78604523D01*
X162578261Y-78544047D01*
X162517785Y-78483571D01*
X162457309Y-78362619D01*
X162457309Y-78060238D01*
X162517785Y-77939285D01*
X162578261Y-77878809D01*
X162699214Y-77818333D01*
X162941119Y-77818333D01*
X163062071Y-77878809D01*
X163122547Y-77939285D01*
X163183023Y-78060238D01*
%TO.C,J418*%
X148396357Y-59584523D02*
X148396357Y-60491666D01*
X148456833Y-60673095D01*
X148577785Y-60794047D01*
X148759214Y-60854523D01*
X148880166Y-60854523D01*
X147247309Y-60007857D02*
X147247309Y-60854523D01*
X147549690Y-59524047D02*
X147852071Y-60431190D01*
X147065880Y-60431190D01*
X145916833Y-60854523D02*
X146642547Y-60854523D01*
X146279690Y-60854523D02*
X146279690Y-59584523D01*
X146400642Y-59765952D01*
X146521595Y-59886904D01*
X146642547Y-59947380D01*
X145191119Y-60128809D02*
X145312071Y-60068333D01*
X145372547Y-60007857D01*
X145433023Y-59886904D01*
X145433023Y-59826428D01*
X145372547Y-59705476D01*
X145312071Y-59645000D01*
X145191119Y-59584523D01*
X144949214Y-59584523D01*
X144828261Y-59645000D01*
X144767785Y-59705476D01*
X144707309Y-59826428D01*
X144707309Y-59886904D01*
X144767785Y-60007857D01*
X144828261Y-60068333D01*
X144949214Y-60128809D01*
X145191119Y-60128809D01*
X145312071Y-60189285D01*
X145372547Y-60249761D01*
X145433023Y-60370714D01*
X145433023Y-60612619D01*
X145372547Y-60733571D01*
X145312071Y-60794047D01*
X145191119Y-60854523D01*
X144949214Y-60854523D01*
X144828261Y-60794047D01*
X144767785Y-60733571D01*
X144707309Y-60612619D01*
X144707309Y-60370714D01*
X144767785Y-60249761D01*
X144828261Y-60189285D01*
X144949214Y-60128809D01*
%TO.C,J407*%
X201646357Y-24084523D02*
X201646357Y-24991666D01*
X201706833Y-25173095D01*
X201827785Y-25294047D01*
X202009214Y-25354523D01*
X202130166Y-25354523D01*
X200497309Y-24507857D02*
X200497309Y-25354523D01*
X200799690Y-24024047D02*
X201102071Y-24931190D01*
X200315880Y-24931190D01*
X199590166Y-24084523D02*
X199469214Y-24084523D01*
X199348261Y-24145000D01*
X199287785Y-24205476D01*
X199227309Y-24326428D01*
X199166833Y-24568333D01*
X199166833Y-24870714D01*
X199227309Y-25112619D01*
X199287785Y-25233571D01*
X199348261Y-25294047D01*
X199469214Y-25354523D01*
X199590166Y-25354523D01*
X199711119Y-25294047D01*
X199771595Y-25233571D01*
X199832071Y-25112619D01*
X199892547Y-24870714D01*
X199892547Y-24568333D01*
X199832071Y-24326428D01*
X199771595Y-24205476D01*
X199711119Y-24145000D01*
X199590166Y-24084523D01*
X198743500Y-24084523D02*
X197896833Y-24084523D01*
X198441119Y-25354523D01*
%TO.C,J411*%
X148396357Y-41834523D02*
X148396357Y-42741666D01*
X148456833Y-42923095D01*
X148577785Y-43044047D01*
X148759214Y-43104523D01*
X148880166Y-43104523D01*
X147247309Y-42257857D02*
X147247309Y-43104523D01*
X147549690Y-41774047D02*
X147852071Y-42681190D01*
X147065880Y-42681190D01*
X145916833Y-43104523D02*
X146642547Y-43104523D01*
X146279690Y-43104523D02*
X146279690Y-41834523D01*
X146400642Y-42015952D01*
X146521595Y-42136904D01*
X146642547Y-42197380D01*
X144707309Y-43104523D02*
X145433023Y-43104523D01*
X145070166Y-43104523D02*
X145070166Y-41834523D01*
X145191119Y-42015952D01*
X145312071Y-42136904D01*
X145433023Y-42197380D01*
D10*
%TO.C,SW401*%
X204212214Y-80966761D02*
X204069357Y-81014380D01*
X203831261Y-81014380D01*
X203736023Y-80966761D01*
X203688404Y-80919142D01*
X203640785Y-80823904D01*
X203640785Y-80728666D01*
X203688404Y-80633428D01*
X203736023Y-80585809D01*
X203831261Y-80538190D01*
X204021738Y-80490571D01*
X204116976Y-80442952D01*
X204164595Y-80395333D01*
X204212214Y-80300095D01*
X204212214Y-80204857D01*
X204164595Y-80109619D01*
X204116976Y-80062000D01*
X204021738Y-80014380D01*
X203783642Y-80014380D01*
X203640785Y-80062000D01*
X203307452Y-80014380D02*
X203069357Y-81014380D01*
X202878880Y-80300095D01*
X202688404Y-81014380D01*
X202450309Y-80014380D01*
X201640785Y-80347714D02*
X201640785Y-81014380D01*
X201878880Y-79966761D02*
X202116976Y-80681047D01*
X201497928Y-80681047D01*
X200926500Y-80014380D02*
X200831261Y-80014380D01*
X200736023Y-80062000D01*
X200688404Y-80109619D01*
X200640785Y-80204857D01*
X200593166Y-80395333D01*
X200593166Y-80633428D01*
X200640785Y-80823904D01*
X200688404Y-80919142D01*
X200736023Y-80966761D01*
X200831261Y-81014380D01*
X200926500Y-81014380D01*
X201021738Y-80966761D01*
X201069357Y-80919142D01*
X201116976Y-80823904D01*
X201164595Y-80633428D01*
X201164595Y-80395333D01*
X201116976Y-80204857D01*
X201069357Y-80109619D01*
X201021738Y-80062000D01*
X200926500Y-80014380D01*
X199640785Y-81014380D02*
X200212214Y-81014380D01*
X199926500Y-81014380D02*
X199926500Y-80014380D01*
X200021738Y-80157238D01*
X200116976Y-80252476D01*
X200212214Y-80300095D01*
%TO.C,J413*%
X172690880Y-65024285D02*
X173405166Y-65024285D01*
X173548023Y-64976666D01*
X173643261Y-64881428D01*
X173690880Y-64738571D01*
X173690880Y-64643333D01*
X173024214Y-65929047D02*
X173690880Y-65929047D01*
X172643261Y-65690952D02*
X173357547Y-65452857D01*
X173357547Y-66071904D01*
X173690880Y-66976666D02*
X173690880Y-66405238D01*
X173690880Y-66690952D02*
X172690880Y-66690952D01*
X172833738Y-66595714D01*
X172928976Y-66500476D01*
X172976595Y-66405238D01*
X172690880Y-67310000D02*
X172690880Y-67929047D01*
X173071833Y-67595714D01*
X173071833Y-67738571D01*
X173119452Y-67833809D01*
X173167071Y-67881428D01*
X173262309Y-67929047D01*
X173500404Y-67929047D01*
X173595642Y-67881428D01*
X173643261Y-67833809D01*
X173690880Y-67738571D01*
X173690880Y-67452857D01*
X173643261Y-67357619D01*
X173595642Y-67310000D01*
D11*
%TO.C,J406*%
X183896357Y-24084523D02*
X183896357Y-24991666D01*
X183956833Y-25173095D01*
X184077785Y-25294047D01*
X184259214Y-25354523D01*
X184380166Y-25354523D01*
X182747309Y-24507857D02*
X182747309Y-25354523D01*
X183049690Y-24024047D02*
X183352071Y-24931190D01*
X182565880Y-24931190D01*
X181840166Y-24084523D02*
X181719214Y-24084523D01*
X181598261Y-24145000D01*
X181537785Y-24205476D01*
X181477309Y-24326428D01*
X181416833Y-24568333D01*
X181416833Y-24870714D01*
X181477309Y-25112619D01*
X181537785Y-25233571D01*
X181598261Y-25294047D01*
X181719214Y-25354523D01*
X181840166Y-25354523D01*
X181961119Y-25294047D01*
X182021595Y-25233571D01*
X182082071Y-25112619D01*
X182142547Y-24870714D01*
X182142547Y-24568333D01*
X182082071Y-24326428D01*
X182021595Y-24205476D01*
X181961119Y-24145000D01*
X181840166Y-24084523D01*
X180328261Y-24084523D02*
X180570166Y-24084523D01*
X180691119Y-24145000D01*
X180751595Y-24205476D01*
X180872547Y-24386904D01*
X180933023Y-24628809D01*
X180933023Y-25112619D01*
X180872547Y-25233571D01*
X180812071Y-25294047D01*
X180691119Y-25354523D01*
X180449214Y-25354523D01*
X180328261Y-25294047D01*
X180267785Y-25233571D01*
X180207309Y-25112619D01*
X180207309Y-24810238D01*
X180267785Y-24689285D01*
X180328261Y-24628809D01*
X180449214Y-24568333D01*
X180691119Y-24568333D01*
X180812071Y-24628809D01*
X180872547Y-24689285D01*
X180933023Y-24810238D01*
%TO.C,J402*%
X130646357Y-24084523D02*
X130646357Y-24991666D01*
X130706833Y-25173095D01*
X130827785Y-25294047D01*
X131009214Y-25354523D01*
X131130166Y-25354523D01*
X129497309Y-24507857D02*
X129497309Y-25354523D01*
X129799690Y-24024047D02*
X130102071Y-24931190D01*
X129315880Y-24931190D01*
X128590166Y-24084523D02*
X128469214Y-24084523D01*
X128348261Y-24145000D01*
X128287785Y-24205476D01*
X128227309Y-24326428D01*
X128166833Y-24568333D01*
X128166833Y-24870714D01*
X128227309Y-25112619D01*
X128287785Y-25233571D01*
X128348261Y-25294047D01*
X128469214Y-25354523D01*
X128590166Y-25354523D01*
X128711119Y-25294047D01*
X128771595Y-25233571D01*
X128832071Y-25112619D01*
X128892547Y-24870714D01*
X128892547Y-24568333D01*
X128832071Y-24326428D01*
X128771595Y-24205476D01*
X128711119Y-24145000D01*
X128590166Y-24084523D01*
X127683023Y-24205476D02*
X127622547Y-24145000D01*
X127501595Y-24084523D01*
X127199214Y-24084523D01*
X127078261Y-24145000D01*
X127017785Y-24205476D01*
X126957309Y-24326428D01*
X126957309Y-24447380D01*
X127017785Y-24628809D01*
X127743500Y-25354523D01*
X126957309Y-25354523D01*
%TO.C,J410*%
X130646357Y-41834523D02*
X130646357Y-42741666D01*
X130706833Y-42923095D01*
X130827785Y-43044047D01*
X131009214Y-43104523D01*
X131130166Y-43104523D01*
X129497309Y-42257857D02*
X129497309Y-43104523D01*
X129799690Y-41774047D02*
X130102071Y-42681190D01*
X129315880Y-42681190D01*
X128166833Y-43104523D02*
X128892547Y-43104523D01*
X128529690Y-43104523D02*
X128529690Y-41834523D01*
X128650642Y-42015952D01*
X128771595Y-42136904D01*
X128892547Y-42197380D01*
X127380642Y-41834523D02*
X127259690Y-41834523D01*
X127138738Y-41895000D01*
X127078261Y-41955476D01*
X127017785Y-42076428D01*
X126957309Y-42318333D01*
X126957309Y-42620714D01*
X127017785Y-42862619D01*
X127078261Y-42983571D01*
X127138738Y-43044047D01*
X127259690Y-43104523D01*
X127380642Y-43104523D01*
X127501595Y-43044047D01*
X127562071Y-42983571D01*
X127622547Y-42862619D01*
X127683023Y-42620714D01*
X127683023Y-42318333D01*
X127622547Y-42076428D01*
X127562071Y-41955476D01*
X127501595Y-41895000D01*
X127380642Y-41834523D01*
D12*
%TO.C,R404*%
X209058595Y-79750641D02*
G75*
G03*
X209155633Y-81200000I-320095J-749359D01*
G01*
%TO.C,R403*%
X177323405Y-82749359D02*
G75*
G03*
X177226367Y-81300000I320095J749359D01*
G01*
%TO.C,R402*%
X209058595Y-82750641D02*
G75*
G03*
X209155633Y-84200000I-320095J-749359D01*
G01*
%TO.C,R401*%
X177418405Y-86249359D02*
G75*
G03*
X177321367Y-84800000I320095J749359D01*
G01*
%TO.C,J414*%
X225968500Y-69370000D02*
X225968500Y-69370000D01*
X221658500Y-56410000D02*
X221998500Y-55800000D01*
X220498500Y-55410000D02*
X220348500Y-55680000D01*
X220478500Y-77210000D02*
X209118500Y-77210000D01*
X230038500Y-70870000D02*
X230038500Y-69370000D01*
X225268500Y-61750000D02*
X230038500Y-61750000D01*
X230038500Y-70870000D02*
X227738500Y-70870000D01*
X230038500Y-63250000D02*
X225968500Y-63250000D01*
X227738500Y-70870000D02*
X227738500Y-76210000D01*
X215238500Y-55410000D02*
X209998500Y-55410000D01*
X221358500Y-55410000D02*
X220498500Y-55410000D01*
X227738500Y-66050000D02*
X227738500Y-65570000D01*
X230038500Y-69370000D02*
X225968500Y-69370000D01*
X226138500Y-66250000D02*
X227538500Y-66250000D01*
X226278500Y-65370000D02*
X227538500Y-65370000D01*
X230038500Y-63250000D02*
X230038500Y-61750000D01*
X221998500Y-55800000D02*
X221358500Y-55410000D01*
X221658500Y-56410000D02*
G75*
G03*
X221932332Y-57707798I890001J-490000D01*
G01*
X206920931Y-54353311D02*
G75*
G03*
X209998500Y-55410000I3077567J3953304D01*
G01*
X203504658Y-62001919D02*
G75*
G03*
X203108500Y-57740000I-4706161J1711919D01*
G01*
X226082870Y-65211582D02*
G75*
G03*
X226278500Y-65370000I195631J41584D01*
G01*
X203507763Y-61990950D02*
G75*
G03*
X209118500Y-77210000I11730735J-4319051D01*
G01*
X225968500Y-63250001D02*
G75*
G03*
X225759299Y-63441697I0J-210000D01*
G01*
X225758788Y-69170991D02*
G75*
G03*
X225968500Y-69370000I209712J10991D01*
G01*
X225109364Y-61683636D02*
G75*
G03*
X225268500Y-61750000I149134J133632D01*
G01*
X227738500Y-65570000D02*
G75*
G03*
X227538500Y-65370000I-200001J-1D01*
G01*
X227538500Y-66250000D02*
G75*
G03*
X227738500Y-66050000I-1J200001D01*
G01*
X219189872Y-56150786D02*
G75*
G03*
X220348500Y-55680000I288628J950786D01*
G01*
X206929469Y-54358020D02*
G75*
G03*
X203108500Y-57740000I-1590969J-2051980D01*
G01*
X223543783Y-78262470D02*
G75*
G03*
X220478500Y-77210000I-3065283J-3937530D01*
G01*
X223541358Y-78261619D02*
G75*
G03*
X227738500Y-76210000I1597142J2051619D01*
G01*
X226338500Y-76210000D02*
G75*
G03*
X226338500Y-76210000I-1200000J0D01*
G01*
X206538500Y-56410000D02*
G75*
G03*
X206538500Y-56410000I-1200000J0D01*
G01*
X224838500Y-66310000D02*
G75*
G03*
X224838500Y-66310000I-9600000J0D01*
G01*
X223138500Y-66310000D02*
G75*
G03*
X223138500Y-66310000I-7900000J0D01*
G01*
X226138500Y-66310000D02*
G75*
G03*
X226138500Y-66310000I-10900000J0D01*
G01*
D13*
%TO.C,J420*%
X137138500Y-74350000D02*
X137138500Y-81250000D01*
X129678500Y-74350000D02*
X137138500Y-74350000D01*
X121338500Y-74350000D02*
X127678500Y-74350000D01*
D14*
X122868500Y-88720000D02*
X122868500Y-88720000D01*
X122668500Y-88720000D02*
X122668500Y-88720000D01*
D13*
X137138500Y-90150000D02*
X125238500Y-90150000D01*
X121338500Y-86250000D02*
X121338500Y-74350000D01*
X137138500Y-84250000D02*
X137138500Y-90150000D01*
X125238500Y-90150000D02*
X121338500Y-86250000D01*
D14*
X122868500Y-88720000D02*
G75*
G03*
X122668500Y-88720000I-100000J0D01*
G01*
X122668500Y-88720000D02*
G75*
G03*
X122868500Y-88720000I100000J0D01*
G01*
D13*
%TO.C,J405*%
X172638500Y-38850000D02*
X172638500Y-45750000D01*
D14*
X158368500Y-53220000D02*
X158368500Y-53220000D01*
D13*
X156838500Y-50750000D02*
X156838500Y-38850000D01*
X172638500Y-54650000D02*
X160738500Y-54650000D01*
X160738500Y-54650000D02*
X156838500Y-50750000D01*
X156838500Y-38850000D02*
X163178500Y-38850000D01*
X172638500Y-48750000D02*
X172638500Y-54650000D01*
X165178500Y-38850000D02*
X172638500Y-38850000D01*
D14*
X158168500Y-53220000D02*
X158168500Y-53220000D01*
X158168500Y-53220000D02*
G75*
G03*
X158368500Y-53220000I100000J0D01*
G01*
X158368500Y-53220000D02*
G75*
G03*
X158168500Y-53220000I-100000J0D01*
G01*
%TO.C,J415*%
X158168500Y-70970000D02*
X158168500Y-70970000D01*
X158368500Y-70970000D02*
X158368500Y-70970000D01*
D13*
X172638500Y-66500000D02*
X172638500Y-72400000D01*
X160738500Y-72400000D02*
X156838500Y-68500000D01*
X172638500Y-72400000D02*
X160738500Y-72400000D01*
X165178500Y-56600000D02*
X172638500Y-56600000D01*
X156838500Y-56600000D02*
X163178500Y-56600000D01*
X172638500Y-56600000D02*
X172638500Y-63500000D01*
X156838500Y-68500000D02*
X156838500Y-56600000D01*
D14*
X158168500Y-70970000D02*
G75*
G03*
X158368500Y-70970000I100000J0D01*
G01*
X158368500Y-70970000D02*
G75*
G03*
X158168500Y-70970000I-100000J0D01*
G01*
D13*
%TO.C,J408*%
X213988500Y-36900000D02*
X210088500Y-33000000D01*
X225888500Y-36900000D02*
X213988500Y-36900000D01*
X210088500Y-33000000D02*
X210088500Y-21100000D01*
D14*
X211618500Y-35470000D02*
X211618500Y-35470000D01*
D13*
X210088500Y-21100000D02*
X216428500Y-21100000D01*
X225888500Y-31000000D02*
X225888500Y-36900000D01*
X225888500Y-21100000D02*
X225888500Y-28000000D01*
D14*
X211418500Y-35470000D02*
X211418500Y-35470000D01*
D13*
X218428500Y-21100000D02*
X225888500Y-21100000D01*
D14*
X211418500Y-35470000D02*
G75*
G03*
X211618500Y-35470000I100000J0D01*
G01*
X211618500Y-35470000D02*
G75*
G03*
X211418500Y-35470000I-100000J0D01*
G01*
D13*
%TO.C,J417*%
X121338500Y-56600000D02*
X127678500Y-56600000D01*
X121338500Y-68500000D02*
X121338500Y-56600000D01*
X137138500Y-72400000D02*
X125238500Y-72400000D01*
D14*
X122668500Y-70970000D02*
X122668500Y-70970000D01*
D13*
X137138500Y-56600000D02*
X137138500Y-63500000D01*
D14*
X122868500Y-70970000D02*
X122868500Y-70970000D01*
D13*
X129678500Y-56600000D02*
X137138500Y-56600000D01*
X125238500Y-72400000D02*
X121338500Y-68500000D01*
X137138500Y-66500000D02*
X137138500Y-72400000D01*
D14*
X122668500Y-70970000D02*
G75*
G03*
X122868500Y-70970000I100000J0D01*
G01*
X122868500Y-70970000D02*
G75*
G03*
X122668500Y-70970000I-100000J0D01*
G01*
%TO.C,J409*%
X211618500Y-53220000D02*
X211618500Y-53220000D01*
X211418500Y-53220000D02*
X211418500Y-53220000D01*
D13*
X210088500Y-38850000D02*
X216428500Y-38850000D01*
X213988500Y-54650000D02*
X210088500Y-50750000D01*
X225888500Y-48750000D02*
X225888500Y-54650000D01*
X218428500Y-38850000D02*
X225888500Y-38850000D01*
X210088500Y-50750000D02*
X210088500Y-38850000D01*
X225888500Y-54650000D02*
X213988500Y-54650000D01*
X225888500Y-38850000D02*
X225888500Y-45750000D01*
D14*
X211618500Y-53220000D02*
G75*
G03*
X211418500Y-53220000I-100000J0D01*
G01*
X211418500Y-53220000D02*
G75*
G03*
X211618500Y-53220000I100000J0D01*
G01*
D13*
%TO.C,J419*%
X147428500Y-74350000D02*
X154888500Y-74350000D01*
D14*
X140418500Y-88720000D02*
X140418500Y-88720000D01*
D13*
X154888500Y-74350000D02*
X154888500Y-81250000D01*
X154888500Y-90150000D02*
X142988500Y-90150000D01*
X142988500Y-90150000D02*
X139088500Y-86250000D01*
X139088500Y-74350000D02*
X145428500Y-74350000D01*
X154888500Y-84250000D02*
X154888500Y-90150000D01*
X139088500Y-86250000D02*
X139088500Y-74350000D01*
D14*
X140618500Y-88720000D02*
X140618500Y-88720000D01*
X140418500Y-88720000D02*
G75*
G03*
X140618500Y-88720000I100000J0D01*
G01*
X140618500Y-88720000D02*
G75*
G03*
X140418500Y-88720000I-100000J0D01*
G01*
%TO.C,J403*%
X140418500Y-35470000D02*
X140418500Y-35470000D01*
D13*
X142988500Y-36900000D02*
X139088500Y-33000000D01*
D14*
X140618500Y-35470000D02*
X140618500Y-35470000D01*
D13*
X147428500Y-21100000D02*
X154888500Y-21100000D01*
X154888500Y-31000000D02*
X154888500Y-36900000D01*
X154888500Y-36900000D02*
X142988500Y-36900000D01*
X139088500Y-33000000D02*
X139088500Y-21100000D01*
X139088500Y-21100000D02*
X145428500Y-21100000D01*
X154888500Y-21100000D02*
X154888500Y-28000000D01*
D14*
X140418500Y-35470000D02*
G75*
G03*
X140618500Y-35470000I100000J0D01*
G01*
X140618500Y-35470000D02*
G75*
G03*
X140418500Y-35470000I-100000J0D01*
G01*
D13*
%TO.C,J404*%
X156838500Y-21100000D02*
X163178500Y-21100000D01*
X172638500Y-21100000D02*
X172638500Y-28000000D01*
X172638500Y-31000000D02*
X172638500Y-36900000D01*
D14*
X158368500Y-35470000D02*
X158368500Y-35470000D01*
X158168500Y-35470000D02*
X158168500Y-35470000D01*
D13*
X156838500Y-33000000D02*
X156838500Y-21100000D01*
X160738500Y-36900000D02*
X156838500Y-33000000D01*
X172638500Y-36900000D02*
X160738500Y-36900000D01*
X165178500Y-21100000D02*
X172638500Y-21100000D01*
D14*
X158168500Y-35470000D02*
G75*
G03*
X158368500Y-35470000I100000J0D01*
G01*
X158368500Y-35470000D02*
G75*
G03*
X158168500Y-35470000I-100000J0D01*
G01*
D13*
%TO.C,J416*%
X156838500Y-86250000D02*
X156838500Y-74350000D01*
D14*
X158368500Y-88720000D02*
X158368500Y-88720000D01*
D13*
X172638500Y-84250000D02*
X172638500Y-90150000D01*
X160738500Y-90150000D02*
X156838500Y-86250000D01*
X156838500Y-74350000D02*
X163178500Y-74350000D01*
X172638500Y-90150000D02*
X160738500Y-90150000D01*
X165178500Y-74350000D02*
X172638500Y-74350000D01*
D14*
X158168500Y-88720000D02*
X158168500Y-88720000D01*
D13*
X172638500Y-74350000D02*
X172638500Y-81250000D01*
D14*
X158368500Y-88720000D02*
G75*
G03*
X158168500Y-88720000I-100000J0D01*
G01*
X158168500Y-88720000D02*
G75*
G03*
X158368500Y-88720000I100000J0D01*
G01*
D13*
%TO.C,J418*%
X139088500Y-56600000D02*
X145428500Y-56600000D01*
X139088500Y-68500000D02*
X139088500Y-56600000D01*
X147428500Y-56600000D02*
X154888500Y-56600000D01*
X154888500Y-56600000D02*
X154888500Y-63500000D01*
X154888500Y-72400000D02*
X142988500Y-72400000D01*
D14*
X140618500Y-70970000D02*
X140618500Y-70970000D01*
D13*
X154888500Y-66500000D02*
X154888500Y-72400000D01*
D14*
X140418500Y-70970000D02*
X140418500Y-70970000D01*
D13*
X142988500Y-72400000D02*
X139088500Y-68500000D01*
D14*
X140418500Y-70970000D02*
G75*
G03*
X140618500Y-70970000I100000J0D01*
G01*
X140618500Y-70970000D02*
G75*
G03*
X140418500Y-70970000I-100000J0D01*
G01*
D13*
%TO.C,J407*%
X208138500Y-21100000D02*
X208138500Y-28000000D01*
X196238500Y-36900000D02*
X192338500Y-33000000D01*
X208138500Y-36900000D02*
X196238500Y-36900000D01*
X208138500Y-31000000D02*
X208138500Y-36900000D01*
X192338500Y-21100000D02*
X198678500Y-21100000D01*
D14*
X193868500Y-35470000D02*
X193868500Y-35470000D01*
D13*
X200678500Y-21100000D02*
X208138500Y-21100000D01*
X192338500Y-33000000D02*
X192338500Y-21100000D01*
D14*
X193668500Y-35470000D02*
X193668500Y-35470000D01*
X193668500Y-35470000D02*
G75*
G03*
X193868500Y-35470000I100000J0D01*
G01*
X193868500Y-35470000D02*
G75*
G03*
X193668500Y-35470000I-100000J0D01*
G01*
D13*
%TO.C,J411*%
X154888500Y-38850000D02*
X154888500Y-45750000D01*
X147428500Y-38850000D02*
X154888500Y-38850000D01*
X139088500Y-38850000D02*
X145428500Y-38850000D01*
X142988500Y-54650000D02*
X139088500Y-50750000D01*
X139088500Y-50750000D02*
X139088500Y-38850000D01*
X154888500Y-48750000D02*
X154888500Y-54650000D01*
D14*
X140618500Y-53220000D02*
X140618500Y-53220000D01*
X140418500Y-53220000D02*
X140418500Y-53220000D01*
D13*
X154888500Y-54650000D02*
X142988500Y-54650000D01*
D14*
X140418500Y-53220000D02*
G75*
G03*
X140618500Y-53220000I100000J0D01*
G01*
X140618500Y-53220000D02*
G75*
G03*
X140418500Y-53220000I-100000J0D01*
G01*
D12*
%TO.C,SW401*%
X205442500Y-89916000D02*
X205442500Y-82804000D01*
X204442500Y-82804000D02*
X205442500Y-82804000D01*
X198330500Y-89916000D02*
X198330500Y-82804000D01*
X198390500Y-89916000D02*
X205442500Y-89916000D01*
X202902500Y-84836000D02*
X202902500Y-87884000D01*
X200870500Y-87884000D02*
X202902500Y-87884000D01*
X200870500Y-84836000D02*
X200870500Y-87884000D01*
X205442500Y-83812000D02*
X205442500Y-82812000D01*
X200870500Y-84836000D02*
X202902500Y-84836000D01*
X198330500Y-82804000D02*
X205442500Y-82804000D01*
%TO.C,J413*%
X201538500Y-70870000D02*
X201538500Y-69370000D01*
X201538500Y-63250000D02*
X201538500Y-61750000D01*
X193498500Y-55800000D02*
X192858500Y-55410000D01*
X201538500Y-70870000D02*
X199238500Y-70870000D01*
X192858500Y-55410000D02*
X191998500Y-55410000D01*
X191998500Y-55410000D02*
X191848500Y-55680000D01*
X199238500Y-66050000D02*
X199238500Y-65570000D01*
X186738500Y-55410000D02*
X181498500Y-55410000D01*
X197468500Y-69370000D02*
X197468500Y-69370000D01*
X196768500Y-61750000D02*
X201538500Y-61750000D01*
X199238500Y-70870000D02*
X199238500Y-76210000D01*
X201538500Y-63250000D02*
X197468500Y-63250000D01*
X197638500Y-66250000D02*
X199038500Y-66250000D01*
X191978500Y-77210000D02*
X180618500Y-77210000D01*
X201538500Y-69370000D02*
X197468500Y-69370000D01*
X193158500Y-56410000D02*
X193498500Y-55800000D01*
X197778500Y-65370000D02*
X199038500Y-65370000D01*
X199038500Y-66250000D02*
G75*
G03*
X199238500Y-66050000I-1J200001D01*
G01*
X197582870Y-65211582D02*
G75*
G03*
X197778500Y-65370000I195631J41584D01*
G01*
X196609364Y-61683636D02*
G75*
G03*
X196768500Y-61750000I149134J133632D01*
G01*
X197468500Y-63250001D02*
G75*
G03*
X197259299Y-63441697I0J-210000D01*
G01*
X197258788Y-69170991D02*
G75*
G03*
X197468500Y-69370000I209712J10991D01*
G01*
X199238500Y-65570000D02*
G75*
G03*
X199038500Y-65370000I-200001J-1D01*
G01*
X175004658Y-62001919D02*
G75*
G03*
X174608500Y-57740000I-4706161J1711919D01*
G01*
X178420931Y-54353311D02*
G75*
G03*
X181498500Y-55410000I3077567J3953304D01*
G01*
X195041358Y-78261619D02*
G75*
G03*
X199238500Y-76210000I1597142J2051619D01*
G01*
X193158500Y-56410000D02*
G75*
G03*
X193432332Y-57707798I890001J-490000D01*
G01*
X195043783Y-78262470D02*
G75*
G03*
X191978500Y-77210000I-3065283J-3937530D01*
G01*
X175007763Y-61990950D02*
G75*
G03*
X180618500Y-77210000I11730735J-4319051D01*
G01*
X178429469Y-54358020D02*
G75*
G03*
X174608500Y-57740000I-1590969J-2051980D01*
G01*
X190689872Y-56150786D02*
G75*
G03*
X191848500Y-55680000I288628J950786D01*
G01*
X194638500Y-66310000D02*
G75*
G03*
X194638500Y-66310000I-7900000J0D01*
G01*
X196338500Y-66310000D02*
G75*
G03*
X196338500Y-66310000I-9600000J0D01*
G01*
X197638500Y-66310000D02*
G75*
G03*
X197638500Y-66310000I-10900000J0D01*
G01*
X197838500Y-76210000D02*
G75*
G03*
X197838500Y-76210000I-1200000J0D01*
G01*
X178038500Y-56410000D02*
G75*
G03*
X178038500Y-56410000I-1200000J0D01*
G01*
D13*
%TO.C,J406*%
X190388500Y-31000000D02*
X190388500Y-36900000D01*
D14*
X175918500Y-35470000D02*
X175918500Y-35470000D01*
D13*
X174588500Y-21100000D02*
X180928500Y-21100000D01*
X190388500Y-21100000D02*
X190388500Y-28000000D01*
X182928500Y-21100000D02*
X190388500Y-21100000D01*
X190388500Y-36900000D02*
X178488500Y-36900000D01*
X174588500Y-33000000D02*
X174588500Y-21100000D01*
X178488500Y-36900000D02*
X174588500Y-33000000D01*
D14*
X176118500Y-35470000D02*
X176118500Y-35470000D01*
X175918500Y-35470000D02*
G75*
G03*
X176118500Y-35470000I100000J0D01*
G01*
X176118500Y-35470000D02*
G75*
G03*
X175918500Y-35470000I-100000J0D01*
G01*
%TO.C,J402*%
X122868500Y-35470000D02*
X122868500Y-35470000D01*
D13*
X137138500Y-36900000D02*
X125238500Y-36900000D01*
X129678500Y-21100000D02*
X137138500Y-21100000D01*
X125238500Y-36900000D02*
X121338500Y-33000000D01*
X137138500Y-31000000D02*
X137138500Y-36900000D01*
X137138500Y-21100000D02*
X137138500Y-28000000D01*
D14*
X122668500Y-35470000D02*
X122668500Y-35470000D01*
D13*
X121338500Y-21100000D02*
X127678500Y-21100000D01*
X121338500Y-33000000D02*
X121338500Y-21100000D01*
D14*
X122668500Y-35470000D02*
G75*
G03*
X122868500Y-35470000I100000J0D01*
G01*
X122868500Y-35470000D02*
G75*
G03*
X122668500Y-35470000I-100000J0D01*
G01*
D13*
%TO.C,J410*%
X137138500Y-38850000D02*
X137138500Y-45750000D01*
D14*
X122668500Y-53220000D02*
X122668500Y-53220000D01*
D13*
X121338500Y-50750000D02*
X121338500Y-38850000D01*
X121338500Y-38850000D02*
X127678500Y-38850000D01*
X129678500Y-38850000D02*
X137138500Y-38850000D01*
X137138500Y-48750000D02*
X137138500Y-54650000D01*
D14*
X122868500Y-53220000D02*
X122868500Y-53220000D01*
D13*
X125238500Y-54650000D02*
X121338500Y-50750000D01*
X137138500Y-54650000D02*
X125238500Y-54650000D01*
D14*
X122668500Y-53220000D02*
G75*
G03*
X122868500Y-53220000I100000J0D01*
G01*
X122868500Y-53220000D02*
G75*
G03*
X122668500Y-53220000I-100000J0D01*
G01*
%TD*%
M02*
