M48
; DRILL file {KiCad (6.0.6)} date Di 20 Sep 2022 12:50:11 CEST
; FORMAT={-:-/ absolute / inch / decimal}
; #@! TF.CreationDate,2022-09-20T12:50:11+02:00
; #@! TF.GenerationSoftware,Kicad,Pcbnew,(6.0.6)
; #@! TF.FileFunction,Plated,1,2,PTH
FMAT,2
INCH
; #@! TA.AperFunction,Plated,PTH,ViaDrill
T1C0.0157
; #@! TA.AperFunction,Plated,PTH,ComponentDrill
T2C0.0276
; #@! TA.AperFunction,Plated,PTH,ComponentDrill
T3C0.0315
; #@! TA.AperFunction,Plated,PTH,ComponentDrill
T4C0.0319
; #@! TA.AperFunction,Plated,PTH,ComponentDrill
T5C0.0394
; #@! TA.AperFunction,Plated,PTH,ComponentDrill
T6C0.1102
; #@! TA.AperFunction,Plated,PTH,ComponentDrill
T7C0.1575
; #@! TA.AperFunction,Plated,PTH,ComponentDrill
T8C0.2756
%
G90
G05
T1
X5.4431Y-2.1872
X5.7974Y-1.5179
X6.1321Y-2.2266
X6.6439Y-1.577
X6.8211Y-1.7935
X6.8707Y-1.3313
X6.8801Y-1.636
X6.8801Y-1.9116
X6.9982Y-1.9707
X7.2148Y-2.1675
X7.3526Y-1.5573
X7.3526Y-2.1085
X7.5297Y-2.1478
X7.7659Y-2.1478
X7.9825Y-1.5376
X7.9825Y-2.5219
X8.1006Y-3.5022
X8.2187Y-3.388
X8.2187Y-3.5455
T2
X6.919Y-3.2283
X6.9228Y-3.3661
X6.9938Y-3.2283
X6.9976Y-3.3661
X8.2181Y-3.1693
X8.2181Y-3.2874
X8.2929Y-3.1693
X8.2929Y-3.2874
T3
X7.8683Y-3.3
X7.8683Y-3.5
X7.9483Y-3.5
X7.9499Y-3.3
X8.0283Y-3.3
X8.0283Y-3.5
T4
X7.1336Y-3.0998
X7.1336Y-3.4998
X7.5336Y-3.0998
X7.5336Y-3.4998
X8.4332Y-3.0904
X8.4332Y-3.4904
X8.8332Y-3.0904
X8.8332Y-3.4904
T5
X7.0002Y-1.6325
X7.0002Y-1.7325
X7.1002Y-1.6325
X7.1002Y-1.7325
X7.102Y-1.939
X7.102Y-2.039
X7.2002Y-1.6325
X7.2002Y-1.7325
X7.202Y-1.939
X7.202Y-2.039
X7.3002Y-1.6325
X7.3002Y-1.7325
X7.302Y-1.939
X7.302Y-2.039
X7.4002Y-1.6325
X7.4002Y-1.7325
X7.402Y-1.939
X7.402Y-2.039
X7.5002Y-1.6325
X7.5002Y-1.7325
X7.502Y-1.939
X7.502Y-2.039
X7.6002Y-1.6325
X7.6002Y-1.7325
X7.602Y-1.939
X7.602Y-2.039
X7.7002Y-1.6325
X7.7002Y-1.7325
X7.702Y-1.939
X7.702Y-2.039
X7.8002Y-1.6325
X7.8002Y-1.7325
X7.802Y-1.939
X7.802Y-2.039
X7.9002Y-1.6325
X7.9002Y-1.7325
X7.902Y-1.939
X7.902Y-2.039
X8.0002Y-1.6325
X8.0002Y-1.7325
X8.002Y-1.939
X8.002Y-2.039
X8.1002Y-1.6325
X8.1002Y-1.7325
T6
X7.3519Y-2.4606
X7.3519Y-2.7606
X7.5271Y-2.6106
X8.474Y-2.4606
X8.474Y-2.7606
X8.6492Y-2.6106
T8
X5.0793Y-1.1506
X5.0793Y-1.8494
X5.0793Y-2.5482
X5.0793Y-3.247
X5.7781Y-1.1506
X5.7781Y-1.8494
X5.7781Y-2.5482
X6.4769Y-1.1506
X6.4769Y-1.8494
X6.4769Y-2.5482
X6.4769Y-3.247
X7.1757Y-1.1506
X7.8745Y-1.1506
X8.5734Y-1.1506
X8.5734Y-1.8494
T5
G00X4.8369Y-1.1205
M15
G01X4.8369Y-0.963
M16
G05
G00X4.8369Y-1.8193
M15
G01X4.8369Y-1.6618
M16
G05
G00X4.8369Y-2.5181
M15
G01X4.8369Y-2.3606
M16
G05
G00X4.8369Y-3.2169
M15
G01X4.8369Y-3.0594
M16
G05
G00X4.8486Y-1.2699
M15
G01X4.9599Y-1.3813
M16
G05
G00X4.8486Y-1.9687
M15
G01X4.9599Y-2.0801
M16
G05
G00X4.8486Y-2.6676
M15
G01X4.9599Y-2.7789
M16
G05
G00X4.8486Y-3.3664
M15
G01X4.9599Y-3.4777
M16
G05
G00X4.948Y-0.8906
M15
G01X5.1842Y-0.8906
M16
G05
G00X4.948Y-1.5894
M15
G01X5.1842Y-1.5894
M16
G05
G00X4.948Y-2.2882
M15
G01X5.1842Y-2.2882
M16
G05
G00X4.948Y-2.987
M15
G01X5.1842Y-2.987
M16
G05
G00X5.3393Y-1.2819
M15
G01X5.3393Y-1.0457
M16
G05
G00X5.3393Y-1.9807
M15
G01X5.3393Y-1.7445
M16
G05
G00X5.3393Y-2.6795
M15
G01X5.3393Y-2.4433
M16
G05
G00X5.3393Y-3.3783
M15
G01X5.3393Y-3.1421
M16
G05
G00X5.5358Y-1.1205
M15
G01X5.5358Y-0.963
M16
G05
G00X5.5358Y-1.8193
M15
G01X5.5358Y-1.6618
M16
G05
G00X5.5358Y-2.5181
M15
G01X5.5358Y-2.3606
M16
G05
G00X5.5474Y-1.2699
M15
G01X5.6588Y-1.3813
M16
G05
G00X5.5474Y-1.9687
M15
G01X5.6588Y-2.0801
M16
G05
G00X5.5474Y-2.6676
M15
G01X5.6588Y-2.7789
M16
G05
G00X5.5474Y-3.3664
M15
G01X5.6588Y-3.4777
M16
G05
G00X5.6468Y-0.8906
M15
G01X5.883Y-0.8906
M16
G05
G00X5.6468Y-1.5894
M15
G01X5.883Y-1.5894
M16
G05
G00X5.6468Y-2.2882
M15
G01X5.883Y-2.2882
M16
G05
G00X5.6468Y-2.987
M15
G01X5.883Y-2.987
M16
G05
G00X6.0381Y-1.2819
M15
G01X6.0381Y-1.0457
M16
G05
G00X6.0381Y-1.9807
M15
G01X6.0381Y-1.7445
M16
G05
G00X6.0381Y-2.6795
M15
G01X6.0381Y-2.4433
M16
G05
G00X6.0381Y-3.3783
M15
G01X6.0381Y-3.1421
M16
G05
G00X6.2346Y-1.1205
M15
G01X6.2346Y-0.963
M16
G05
G00X6.2346Y-1.8193
M15
G01X6.2346Y-1.6618
M16
G05
G00X6.2346Y-2.5181
M15
G01X6.2346Y-2.3606
M16
G05
G00X6.2346Y-3.2169
M15
G01X6.2346Y-3.0594
M16
G05
G00X6.2462Y-1.2699
M15
G01X6.3576Y-1.3813
M16
G05
G00X6.2462Y-1.9687
M15
G01X6.3576Y-2.0801
M16
G05
G00X6.2462Y-2.6676
M15
G01X6.3576Y-2.7789
M16
G05
G00X6.2462Y-3.3664
M15
G01X6.3576Y-3.4777
M16
G05
G00X6.3456Y-0.8906
M15
G01X6.5818Y-0.8906
M16
G05
G00X6.3456Y-1.5894
M15
G01X6.5818Y-1.5894
M16
G05
G00X6.3456Y-2.2882
M15
G01X6.5818Y-2.2882
M16
G05
G00X6.3456Y-2.987
M15
G01X6.5818Y-2.987
M16
G05
G00X6.7369Y-1.2819
M15
G01X6.7369Y-1.0457
M16
G05
G00X6.7369Y-1.9807
M15
G01X6.7369Y-1.7445
M16
G05
G00X6.7369Y-2.6795
M15
G01X6.7369Y-2.4433
M16
G05
G00X6.7369Y-3.3783
M15
G01X6.7369Y-3.1421
M16
G05
G00X6.9334Y-1.1205
M15
G01X6.9334Y-0.963
M16
G05
G00X6.9451Y-1.2699
M15
G01X7.0564Y-1.3813
M16
G05
G00X7.0444Y-0.8906
M15
G01X7.2806Y-0.8906
M16
G05
G00X7.4358Y-1.2819
M15
G01X7.4358Y-1.0457
M16
G05
G00X7.6322Y-1.1205
M15
G01X7.6322Y-0.963
M16
G05
G00X7.6439Y-1.2699
M15
G01X7.7552Y-1.3813
M16
G05
G00X7.7432Y-0.8906
M15
G01X7.9795Y-0.8906
M16
G05
G00X8.1346Y-1.2819
M15
G01X8.1346Y-1.0457
M16
G05
G00X8.331Y-1.1205
M15
G01X8.331Y-0.963
M16
G05
G00X8.331Y-1.8193
M15
G01X8.331Y-1.6618
M16
G05
G00X8.3427Y-1.2699
M15
G01X8.454Y-1.3813
M16
G05
G00X8.3427Y-1.9687
M15
G01X8.454Y-2.0801
M16
G05
G00X8.4421Y-0.8906
M15
G01X8.6783Y-0.8906
M16
G05
G00X8.4421Y-1.5894
M15
G01X8.6783Y-1.5894
M16
G05
G00X8.8334Y-1.2819
M15
G01X8.8334Y-1.0457
M16
G05
G00X8.8334Y-1.9807
M15
G01X8.8334Y-1.7445
M16
G05
T7
G00X7.1076Y-2.33
M15
G01X6.9962Y-2.4413
M16
G05
G00X8.2296Y-2.33
M15
G01X8.1183Y-2.4413
M16
G05
T0
M30
