%TF.GenerationSoftware,KiCad,Pcbnew,(6.0.6)*%
%TF.CreationDate,2022-09-20T12:49:51+02:00*%
%TF.ProjectId,Ausgangsstufe,41757367-616e-4677-9373-747566652e6b,rev?*%
%TF.SameCoordinates,Original*%
%TF.FileFunction,Copper,L2,Bot*%
%TF.FilePolarity,Positive*%
%FSLAX46Y46*%
G04 Gerber Fmt 4.6, Leading zero omitted, Abs format (unit mm)*
G04 Created by KiCad (PCBNEW (6.0.6)) date 2022-09-20 12:49:51*
%MOMM*%
%LPD*%
G01*
G04 APERTURE LIST*
G04 Aperture macros list*
%AMHorizOval*
0 Thick line with rounded ends*
0 $1 width*
0 $2 $3 position (X,Y) of the first rounded end (center of the circle)*
0 $4 $5 position (X,Y) of the second rounded end (center of the circle)*
0 Add line between two ends*
20,1,$1,$2,$3,$4,$5,0*
0 Add two circle primitives to create the rounded ends*
1,1,$1,$2,$3*
1,1,$1,$4,$5*%
G04 Aperture macros list end*
%TA.AperFunction,ComponentPad*%
%ADD10C,1.400000*%
%TD*%
%TA.AperFunction,ComponentPad*%
%ADD11O,1.400000X1.400000*%
%TD*%
%TA.AperFunction,ComponentPad*%
%ADD12HorizOval,3.000000X-1.060660X-1.060660X1.060660X1.060660X0*%
%TD*%
%TA.AperFunction,ComponentPad*%
%ADD13C,5.000000*%
%TD*%
%TA.AperFunction,ComponentPad*%
%ADD14HorizOval,1.500000X-1.414214X1.414214X1.414214X-1.414214X0*%
%TD*%
%TA.AperFunction,ComponentPad*%
%ADD15O,1.500000X7.500000*%
%TD*%
%TA.AperFunction,ComponentPad*%
%ADD16O,7.500000X1.500000*%
%TD*%
%TA.AperFunction,ComponentPad*%
%ADD17O,1.500000X5.500000*%
%TD*%
%TA.AperFunction,ComponentPad*%
%ADD18R,1.300000X1.300000*%
%TD*%
%TA.AperFunction,ComponentPad*%
%ADD19C,1.300000*%
%TD*%
%TA.AperFunction,ComponentPad*%
%ADD20R,1.700000X1.700000*%
%TD*%
%TA.AperFunction,ComponentPad*%
%ADD21O,1.700000X1.700000*%
%TD*%
%TA.AperFunction,ComponentPad*%
%ADD22R,1.520000X1.520000*%
%TD*%
%TA.AperFunction,ComponentPad*%
%ADD23C,1.436840*%
%TD*%
%TA.AperFunction,ComponentPad*%
%ADD24C,1.520000*%
%TD*%
%TA.AperFunction,ViaPad*%
%ADD25C,0.800000*%
%TD*%
%TA.AperFunction,Conductor*%
%ADD26C,0.300000*%
%TD*%
%TA.AperFunction,Conductor*%
%ADD27C,0.500000*%
%TD*%
%TA.AperFunction,Conductor*%
%ADD28C,0.250000*%
%TD*%
%TA.AperFunction,Conductor*%
%ADD29C,1.000000*%
%TD*%
%TA.AperFunction,Conductor*%
%ADD30C,0.400000*%
%TD*%
G04 APERTURE END LIST*
D10*
%TO.P,R404,1*%
%TO.N,Main L*%
X208738500Y-80500000D03*
D11*
%TO.P,R404,2*%
%TO.N,Net-(R404-Pad2)*%
X210638500Y-80500000D03*
%TD*%
D10*
%TO.P,R403,1*%
%TO.N,Main R*%
X177643500Y-82000000D03*
D11*
%TO.P,R403,2*%
%TO.N,Net-(R403-Pad2)*%
X175743500Y-82000000D03*
%TD*%
D10*
%TO.P,R402,1*%
%TO.N,Main L*%
X208738500Y-83500000D03*
D11*
%TO.P,R402,2*%
%TO.N,GND*%
X210638500Y-83500000D03*
%TD*%
D10*
%TO.P,R401,1*%
%TO.N,Main R*%
X177738500Y-85500000D03*
D11*
%TO.P,R401,2*%
%TO.N,GND*%
X175838500Y-85500000D03*
%TD*%
D12*
%TO.P,J414,*%
%TO.N,*%
X207618500Y-60595000D03*
D13*
%TO.P,J414,1*%
%TO.N,Net-(J414-Pad1)*%
X215238500Y-70120000D03*
%TO.P,J414,2*%
%TO.N,Net-(J414-Pad2)*%
X215238500Y-62500000D03*
%TO.P,J414,3*%
%TO.N,Net-(J414-Pad3)*%
X219688500Y-66310000D03*
%TD*%
D14*
%TO.P,J420,1*%
%TO.N,GND*%
X124568500Y-86920000D03*
D15*
%TO.P,J420,3*%
%TO.N,N/C*%
X135618500Y-82810000D03*
D16*
%TO.P,J420,4*%
%TO.N,Rec L*%
X128678500Y-75870000D03*
D17*
%TO.P,J420,5*%
%TO.N,N/C*%
X122858500Y-79710000D03*
%TD*%
D14*
%TO.P,J405,1*%
%TO.N,GND*%
X160068500Y-51420000D03*
D15*
%TO.P,J405,3*%
%TO.N,N/C*%
X171118500Y-47310000D03*
D16*
%TO.P,J405,4*%
%TO.N,CH4*%
X164178500Y-40370000D03*
D17*
%TO.P,J405,5*%
%TO.N,N/C*%
X158358500Y-44210000D03*
%TD*%
D14*
%TO.P,J415,1*%
%TO.N,GND*%
X160068500Y-69170000D03*
D15*
%TO.P,J415,3*%
%TO.N,N/C*%
X171118500Y-65060000D03*
D16*
%TO.P,J415,4*%
%TO.N,Klinke R *%
X164178500Y-58120000D03*
D17*
%TO.P,J415,5*%
%TO.N,N/C*%
X158358500Y-61960000D03*
%TD*%
D14*
%TO.P,J408,1*%
%TO.N,GND*%
X213318500Y-33670000D03*
D15*
%TO.P,J408,3*%
%TO.N,N/C*%
X224368500Y-29560000D03*
D16*
%TO.P,J408,4*%
%TO.N,CH7*%
X217428500Y-22620000D03*
D17*
%TO.P,J408,5*%
%TO.N,N/C*%
X211608500Y-26460000D03*
%TD*%
D14*
%TO.P,J417,1*%
%TO.N,GND*%
X124568500Y-69170000D03*
D15*
%TO.P,J417,3*%
%TO.N,N/C*%
X135618500Y-65060000D03*
D16*
%TO.P,J417,4*%
%TO.N,Rec R*%
X128678500Y-58120000D03*
D17*
%TO.P,J417,5*%
%TO.N,N/C*%
X122858500Y-61960000D03*
%TD*%
D14*
%TO.P,J409,1*%
%TO.N,GND*%
X213318500Y-51420000D03*
D15*
%TO.P,J409,3*%
%TO.N,N/C*%
X224368500Y-47310000D03*
D16*
%TO.P,J409,4*%
%TO.N,CH8*%
X217428500Y-40370000D03*
D17*
%TO.P,J409,5*%
%TO.N,N/C*%
X211608500Y-44210000D03*
%TD*%
D14*
%TO.P,J419,1*%
%TO.N,GND*%
X142318500Y-86920000D03*
D15*
%TO.P,J419,3*%
%TO.N,Kopfh\u00F6rer L*%
X153368500Y-82810000D03*
D16*
%TO.P,J419,4*%
%TO.N,Kopfh\u00F6rer R*%
X146428500Y-75870000D03*
%TD*%
D14*
%TO.P,J403,1*%
%TO.N,GND*%
X142318500Y-33670000D03*
D15*
%TO.P,J403,3*%
%TO.N,N/C*%
X153368500Y-29560000D03*
D16*
%TO.P,J403,4*%
%TO.N,CH2*%
X146428500Y-22620000D03*
D17*
%TO.P,J403,5*%
%TO.N,N/C*%
X140608500Y-26460000D03*
%TD*%
D14*
%TO.P,J404,1*%
%TO.N,GND*%
X160068500Y-33670000D03*
D15*
%TO.P,J404,3*%
%TO.N,N/C*%
X171118500Y-29560000D03*
D16*
%TO.P,J404,4*%
%TO.N,CH3*%
X164178500Y-22620000D03*
D17*
%TO.P,J404,5*%
%TO.N,N/C*%
X158358500Y-26460000D03*
%TD*%
D14*
%TO.P,J416,1*%
%TO.N,GND*%
X160068500Y-86920000D03*
D15*
%TO.P,J416,3*%
%TO.N,N/C*%
X171118500Y-82810000D03*
D16*
%TO.P,J416,4*%
%TO.N,Klinke L*%
X164178500Y-75870000D03*
D17*
%TO.P,J416,5*%
%TO.N,N/C*%
X158358500Y-79710000D03*
%TD*%
D14*
%TO.P,J418,1*%
%TO.N,GND*%
X142318500Y-69170000D03*
D15*
%TO.P,J418,3*%
%TO.N,Kopfh\u00F6rer L*%
X153368500Y-65060000D03*
D16*
%TO.P,J418,4*%
%TO.N,Kopfh\u00F6rer R*%
X146428500Y-58120000D03*
D17*
%TO.P,J418,5*%
%TO.N,N/C*%
X140608500Y-61960000D03*
%TD*%
D14*
%TO.P,J407,1*%
%TO.N,GND*%
X195568500Y-33670000D03*
D15*
%TO.P,J407,3*%
%TO.N,N/C*%
X206618500Y-29560000D03*
D16*
%TO.P,J407,4*%
%TO.N,CH6*%
X199678500Y-22620000D03*
D17*
%TO.P,J407,5*%
%TO.N,N/C*%
X193858500Y-26460000D03*
%TD*%
D14*
%TO.P,J411,1*%
%TO.N,GND*%
X142318500Y-51420000D03*
D15*
%TO.P,J411,3*%
%TO.N,N/C*%
X153368500Y-47310000D03*
D16*
%TO.P,J411,4*%
%TO.N,CH10*%
X146428500Y-40370000D03*
D17*
%TO.P,J411,5*%
%TO.N,N/C*%
X140608500Y-44210000D03*
%TD*%
D18*
%TO.P,SW401,1,A*%
%TO.N,Net-(J413-Pad3)*%
X203918500Y-83820000D03*
D19*
%TO.P,SW401,2,B*%
%TO.N,GND*%
X201926500Y-83820000D03*
%TO.P,SW401,3,C*%
%TO.N,unconnected-(SW401-Pad3)*%
X199854500Y-83820000D03*
%TO.P,SW401,4,A*%
%TO.N,Net-(J414-Pad3)*%
X203918500Y-88900000D03*
%TO.P,SW401,5,B*%
%TO.N,GND*%
X201886500Y-88900000D03*
%TO.P,SW401,6,C*%
%TO.N,unconnected-(SW401-Pad6)*%
X199854500Y-88900000D03*
%TD*%
D12*
%TO.P,J413,*%
%TO.N,*%
X179118500Y-60595000D03*
D13*
%TO.P,J413,1*%
%TO.N,Net-(J413-Pad1)*%
X186738500Y-70120000D03*
%TO.P,J413,2*%
%TO.N,Net-(J413-Pad2)*%
X186738500Y-62500000D03*
%TO.P,J413,3*%
%TO.N,Net-(J413-Pad3)*%
X191188500Y-66310000D03*
%TD*%
D14*
%TO.P,J406,1*%
%TO.N,GND*%
X177818500Y-33670000D03*
D15*
%TO.P,J406,3*%
%TO.N,N/C*%
X188868500Y-29560000D03*
D16*
%TO.P,J406,4*%
%TO.N,CH5*%
X181928500Y-22620000D03*
D17*
%TO.P,J406,5*%
%TO.N,N/C*%
X176108500Y-26460000D03*
%TD*%
D14*
%TO.P,J402,1*%
%TO.N,GND*%
X124568500Y-33670000D03*
D15*
%TO.P,J402,3*%
%TO.N,N/C*%
X135618500Y-29560000D03*
D16*
%TO.P,J402,4*%
%TO.N,CH1*%
X128678500Y-22620000D03*
D17*
%TO.P,J402,5*%
%TO.N,N/C*%
X122858500Y-26460000D03*
%TD*%
D14*
%TO.P,J410,1*%
%TO.N,GND*%
X124568500Y-51420000D03*
D15*
%TO.P,J410,3*%
%TO.N,N/C*%
X135618500Y-47310000D03*
D16*
%TO.P,J410,4*%
%TO.N,CH9*%
X128678500Y-40370000D03*
D17*
%TO.P,J410,5*%
%TO.N,N/C*%
X122858500Y-44210000D03*
%TD*%
D20*
%TO.P,J412,1,Pin_1*%
%TO.N,GND*%
X203250000Y-49250000D03*
D21*
%TO.P,J412,2,Pin_2*%
X203250000Y-51790000D03*
%TO.P,J412,3,Pin_3*%
%TO.N,Klinke R *%
X200710000Y-49250000D03*
%TO.P,J412,4,Pin_4*%
X200710000Y-51790000D03*
%TO.P,J412,5,Pin_5*%
%TO.N,Klinke L*%
X198170000Y-49250000D03*
%TO.P,J412,6,Pin_6*%
X198170000Y-51790000D03*
%TO.P,J412,7,Pin_7*%
%TO.N,Main R*%
X195630000Y-49250000D03*
%TO.P,J412,8,Pin_8*%
X195630000Y-51790000D03*
%TO.P,J412,9,Pin_9*%
%TO.N,Main L*%
X193090000Y-49250000D03*
%TO.P,J412,10,Pin_10*%
X193090000Y-51790000D03*
%TO.P,J412,11,Pin_11*%
%TO.N,Kopfh\u00F6rer L*%
X190550000Y-49250000D03*
%TO.P,J412,12,Pin_12*%
X190550000Y-51790000D03*
%TO.P,J412,13,Pin_13*%
%TO.N,Kopfh\u00F6rer R*%
X188010000Y-49250000D03*
%TO.P,J412,14,Pin_14*%
X188010000Y-51790000D03*
%TO.P,J412,15,Pin_15*%
%TO.N,Rec R*%
X185470000Y-49250000D03*
%TO.P,J412,16,Pin_16*%
X185470000Y-51790000D03*
%TO.P,J412,17,Pin_17*%
%TO.N,Rec L*%
X182930000Y-49250000D03*
%TO.P,J412,18,Pin_18*%
X182930000Y-51790000D03*
%TO.P,J412,19,Pin_19*%
%TO.N,GND*%
X180390000Y-49250000D03*
%TO.P,J412,20,Pin_20*%
X180390000Y-51790000D03*
%TD*%
D22*
%TO.P,T104,1,AA*%
%TO.N,Net-(R403-Pad2)*%
X181192500Y-78735000D03*
D23*
%TO.P,T104,2,AB*%
%TO.N,GND*%
X181192500Y-88895000D03*
D24*
%TO.P,T104,3,SB*%
%TO.N,Net-(J413-Pad2)*%
X191352500Y-78735000D03*
%TO.P,T104,5,SA*%
%TO.N,Net-(J413-Pad1)*%
X191352500Y-88895000D03*
%TD*%
D22*
%TO.P,T402,1,AA*%
%TO.N,Net-(R404-Pad2)*%
X214202500Y-78495000D03*
D23*
%TO.P,T402,2,AB*%
%TO.N,GND*%
X214202500Y-88655000D03*
D24*
%TO.P,T402,3,SB*%
%TO.N,Net-(J414-Pad2)*%
X224362500Y-78495000D03*
%TO.P,T402,5,SA*%
%TO.N,Net-(J414-Pad1)*%
X224362500Y-88655000D03*
%TD*%
D20*
%TO.P,J401,1,Pin_1*%
%TO.N,GND*%
X177805000Y-44005000D03*
D21*
%TO.P,J401,2,Pin_2*%
X177805000Y-41465000D03*
%TO.P,J401,3,Pin_3*%
%TO.N,CH1*%
X180345000Y-44005000D03*
%TO.P,J401,4,Pin_4*%
X180345000Y-41465000D03*
%TO.P,J401,5,Pin_5*%
%TO.N,CH2*%
X182885000Y-44005000D03*
%TO.P,J401,6,Pin_6*%
X182885000Y-41465000D03*
%TO.P,J401,7,Pin_7*%
%TO.N,CH3*%
X185425000Y-44005000D03*
%TO.P,J401,8,Pin_8*%
X185425000Y-41465000D03*
%TO.P,J401,9,Pin_9*%
%TO.N,CH4*%
X187965000Y-44005000D03*
%TO.P,J401,10,Pin_10*%
X187965000Y-41465000D03*
%TO.P,J401,11,Pin_11*%
%TO.N,CH5*%
X190505000Y-44005000D03*
%TO.P,J401,12,Pin_12*%
X190505000Y-41465000D03*
%TO.P,J401,13,Pin_13*%
%TO.N,CH6*%
X193045000Y-44005000D03*
%TO.P,J401,14,Pin_14*%
X193045000Y-41465000D03*
%TO.P,J401,15,Pin_15*%
%TO.N,CH7*%
X195585000Y-44005000D03*
%TO.P,J401,16,Pin_16*%
X195585000Y-41465000D03*
%TO.P,J401,17,Pin_17*%
%TO.N,CH8*%
X198125000Y-44005000D03*
%TO.P,J401,18,Pin_18*%
X198125000Y-41465000D03*
%TO.P,J401,19,Pin_19*%
%TO.N,CH9*%
X200665000Y-44005000D03*
%TO.P,J401,20,Pin_20*%
X200665000Y-41465000D03*
%TO.P,J401,21,Pin_21*%
%TO.N,CH10*%
X203205000Y-44005000D03*
%TO.P,J401,22,Pin_22*%
X203205000Y-41465000D03*
%TO.P,J401,23,Pin_23*%
%TO.N,GND*%
X205745000Y-44005000D03*
%TO.P,J401,24,Pin_24*%
X205745000Y-41465000D03*
%TD*%
D25*
%TO.N,GND*%
X174755000Y-48555000D03*
X173255000Y-45555000D03*
X174515000Y-33815000D03*
X177755000Y-50055000D03*
X174755000Y-41555000D03*
%TO.N,Net-(J414-Pad3)*%
X202755000Y-64055000D03*
X205755000Y-88955000D03*
%TO.N,GND*%
X208755000Y-90055000D03*
X208755000Y-86055000D03*
%TO.N,Kopfh\u00F6rer R*%
X155755000Y-56555000D03*
%TO.N,Rec R*%
X138255000Y-55555000D03*
X183255000Y-55055000D03*
%TO.N,Kopfh\u00F6rer R*%
X186755000Y-53555000D03*
%TO.N,Klinke L*%
X197255000Y-54555000D03*
X191255000Y-54555000D03*
%TO.N,CH4*%
X168755000Y-40055000D03*
X186755000Y-39555000D03*
%TO.N,CH10*%
X202755000Y-39055000D03*
X147255000Y-38555000D03*
%TD*%
D26*
%TO.N,Kopfh\u00F6rer L*%
X190533500Y-49195000D02*
X190533500Y-51735000D01*
X190533500Y-51735000D02*
X188893467Y-53375033D01*
X188893467Y-53375033D02*
X188893467Y-53845033D01*
X186488500Y-56250000D02*
X176988500Y-56250000D01*
X176988500Y-56250000D02*
X172540500Y-60698000D01*
X159458500Y-59504365D02*
X158814135Y-58860000D01*
X158814135Y-58860000D02*
X156568500Y-58860000D01*
X188893467Y-53845033D02*
X186488500Y-56250000D01*
X172540500Y-60698000D02*
X160222500Y-60698000D01*
X160222500Y-60698000D02*
X159458500Y-59934000D01*
X159458500Y-59934000D02*
X159458500Y-59504365D01*
X156568500Y-58860000D02*
X153368500Y-62060000D01*
X153368500Y-62060000D02*
X153368500Y-65060000D01*
D27*
%TO.N,CH5*%
X181928500Y-22620000D02*
X186750000Y-27441500D01*
X186750000Y-27441500D02*
X186750000Y-37671500D01*
X190488500Y-41410000D02*
X190488500Y-43950000D01*
X186750000Y-37671500D02*
X190488500Y-41410000D01*
D28*
%TO.N,CH9*%
X128678500Y-40370000D02*
X141908220Y-40370000D01*
X160750000Y-42250000D02*
X173738500Y-42250000D01*
X141908220Y-40370000D02*
X142983220Y-41445000D01*
X142983220Y-41445000D02*
X157393500Y-41445000D01*
X176700500Y-45212000D02*
X199386500Y-45212000D01*
X157393500Y-41445000D02*
X157703500Y-41135000D01*
X157703500Y-41135000D02*
X159635000Y-41135000D01*
X159635000Y-41135000D02*
X160750000Y-42250000D01*
X173738500Y-42250000D02*
X176700500Y-45212000D01*
X199386500Y-45212000D02*
X200648500Y-43950000D01*
D27*
%TO.N,GND*%
X214861444Y-43377056D02*
X213238500Y-45000000D01*
X213318500Y-45080000D02*
X213318500Y-51420000D01*
X214861444Y-42500000D02*
X214861444Y-43377056D01*
X213238500Y-45000000D02*
X213318500Y-45080000D01*
X213318500Y-33670000D02*
X216908500Y-33670000D01*
X222238500Y-39000000D02*
X222238500Y-42500000D01*
X214861444Y-42500000D02*
X212921444Y-40560000D01*
X216908500Y-33670000D02*
X222238500Y-39000000D01*
X222238500Y-42500000D02*
X214861444Y-42500000D01*
X212921444Y-40560000D02*
X206578500Y-40560000D01*
X206578500Y-40560000D02*
X205728500Y-41410000D01*
X173738500Y-46000000D02*
X173238500Y-45500000D01*
X174738500Y-47000000D02*
X173738500Y-46000000D01*
X173738500Y-46000000D02*
X173738500Y-49000000D01*
X170238500Y-53000000D02*
X173988500Y-49250000D01*
X173988500Y-49250000D02*
X174738500Y-48500000D01*
X173738500Y-49000000D02*
X173988500Y-49250000D01*
X174738500Y-48500000D02*
X174738500Y-47000000D01*
X168248500Y-51510000D02*
X169738500Y-53000000D01*
X160158500Y-51510000D02*
X168248500Y-51510000D01*
X160068500Y-51420000D02*
X160158500Y-51510000D01*
X169738500Y-53000000D02*
X170238500Y-53000000D01*
X175238500Y-34500000D02*
X173238500Y-34500000D01*
X174498500Y-33760000D02*
X172498500Y-33760000D01*
X177818500Y-33670000D02*
X176068500Y-33670000D01*
X176068500Y-33670000D02*
X175238500Y-34500000D01*
X172498500Y-33760000D02*
X162955556Y-33760000D01*
X173238500Y-34500000D02*
X172498500Y-33760000D01*
X175338500Y-41500000D02*
X174738500Y-41500000D01*
X177788500Y-43950000D02*
X175338500Y-41500000D01*
X203233500Y-49195000D02*
X203233500Y-46445000D01*
X203233500Y-46445000D02*
X205728500Y-43950000D01*
X178103500Y-50365000D02*
X177738500Y-50000000D01*
X180373500Y-50365000D02*
X178103500Y-50365000D01*
X180373500Y-51735000D02*
X180373500Y-50365000D01*
X180373500Y-50365000D02*
X180373500Y-49195000D01*
X177788500Y-43950000D02*
X177788500Y-41410000D01*
%TO.N,Net-(J414-Pad3)*%
X205755000Y-67055000D02*
X208755000Y-64055000D01*
D29*
X219688500Y-66310000D02*
X205048500Y-66310000D01*
X205048500Y-66310000D02*
X202738500Y-64000000D01*
X203918500Y-88900000D02*
X205638500Y-88900000D01*
D28*
%TO.N,GND*%
X207238500Y-90000000D02*
X202986500Y-90000000D01*
X202986500Y-90000000D02*
X201886500Y-88900000D01*
D27*
X207738500Y-86000000D02*
X208238500Y-85500000D01*
X209238500Y-85500000D02*
X209738500Y-86000000D01*
X204106500Y-86000000D02*
X207738500Y-86000000D01*
X208238500Y-85500000D02*
X209238500Y-85500000D01*
X207738500Y-86000000D02*
X208738500Y-86000000D01*
X208738500Y-86000000D02*
X209738500Y-86000000D01*
X209738500Y-86000000D02*
X210238500Y-86000000D01*
D28*
X208238500Y-89000000D02*
X209738500Y-89000000D01*
X207238500Y-90000000D02*
X208238500Y-89000000D01*
X207238500Y-90000000D02*
X208738500Y-90000000D01*
X208738500Y-90000000D02*
X210238500Y-90000000D01*
D30*
X210238500Y-90000000D02*
X212786000Y-90000000D01*
D28*
X209738500Y-89000000D02*
X210238500Y-89500000D01*
X210238500Y-89500000D02*
X210238500Y-90000000D01*
D27*
%TO.N,Main L*%
X208738500Y-80500000D02*
X208738500Y-83500000D01*
D26*
X193073500Y-51735000D02*
X193073500Y-59835000D01*
X193073500Y-59835000D02*
X193073500Y-60021000D01*
D27*
X208738500Y-75500000D02*
X193073500Y-59835000D01*
X208738500Y-80500000D02*
X208738500Y-75500000D01*
%TO.N,Net-(R404-Pad2)*%
X210638500Y-80500000D02*
X212126000Y-80500000D01*
X212126000Y-80500000D02*
X214186000Y-78440000D01*
D29*
%TO.N,GND*%
X212786000Y-90000000D02*
X214186000Y-88600000D01*
D27*
X201926500Y-83820000D02*
X204106500Y-86000000D01*
X210238500Y-86000000D02*
X210638500Y-85600000D01*
X210638500Y-85600000D02*
X210638500Y-83500000D01*
%TO.N,Kopfh\u00F6rer R*%
X154118500Y-58120000D02*
X155738500Y-56500000D01*
X146428500Y-58120000D02*
X154118500Y-58120000D01*
D26*
%TO.N,Rec R*%
X183238500Y-53950000D02*
X183238500Y-55000000D01*
X185453500Y-51735000D02*
X183238500Y-53950000D01*
%TO.N,Kopfh\u00F6rer R*%
X187993500Y-51735000D02*
X186738500Y-52990000D01*
X186738500Y-52990000D02*
X186738500Y-53500000D01*
D27*
%TO.N,Rec R*%
X135618500Y-58120000D02*
X138238500Y-55500000D01*
X128678500Y-58120000D02*
X135618500Y-58120000D01*
D28*
%TO.N,Kopfh\u00F6rer R*%
X146428500Y-58120000D02*
X142868499Y-61680001D01*
X142868499Y-61680001D02*
X142868499Y-67629999D01*
X142868499Y-67629999D02*
X146428500Y-71190000D01*
X146428500Y-71190000D02*
X146428500Y-75870000D01*
D27*
%TO.N,GND*%
X203233500Y-51735000D02*
X203233500Y-49195000D01*
%TO.N,Klinke L*%
X198153500Y-53585000D02*
X197238500Y-54500000D01*
X198153500Y-51735000D02*
X198153500Y-53585000D01*
D28*
X164178500Y-75870000D02*
X168178500Y-75870000D01*
D30*
X168178500Y-75870000D02*
X189548500Y-54500000D01*
D27*
X189548500Y-54500000D02*
X191238500Y-54500000D01*
%TO.N,GND*%
X160068500Y-86920000D02*
X159978500Y-86830000D01*
X159978500Y-86830000D02*
X159978500Y-69260000D01*
X159978500Y-69260000D02*
X160068500Y-69170000D01*
D28*
%TO.N,Main R*%
X177643500Y-82000000D02*
X177643500Y-85405000D01*
X177643500Y-85405000D02*
X177738500Y-85500000D01*
%TO.N,Net-(R403-Pad2)*%
X175743500Y-82000000D02*
X179063500Y-78680000D01*
X179063500Y-78680000D02*
X181176000Y-78680000D01*
%TO.N,GND*%
X181176000Y-88840000D02*
X179178500Y-88840000D01*
X179178500Y-88840000D02*
X175838500Y-85500000D01*
X201886500Y-88900000D02*
X200261500Y-90525000D01*
X200261500Y-90525000D02*
X182861000Y-90525000D01*
X182861000Y-90525000D02*
X181176000Y-88840000D01*
D27*
%TO.N,Main R*%
X195613500Y-51735000D02*
X195613500Y-59513000D01*
X181238500Y-85500000D02*
X177738500Y-85500000D01*
X195613500Y-59513000D02*
X205188500Y-69088000D01*
X188278551Y-89500000D02*
X185238500Y-89500000D01*
X185238500Y-89500000D02*
X181238500Y-85500000D01*
X205188500Y-69088000D02*
X207254000Y-69088000D01*
X207254000Y-69088000D02*
X221698500Y-83532500D01*
X221698500Y-83532500D02*
X221698500Y-84836000D01*
X221698500Y-84836000D02*
X219412500Y-87122000D01*
X219412500Y-87122000D02*
X196853500Y-87122000D01*
D26*
X196853500Y-87122000D02*
X193925500Y-90050000D01*
X193925500Y-90050000D02*
X188828551Y-90050000D01*
X188828551Y-90050000D02*
X188278551Y-89500000D01*
D27*
%TO.N,GND*%
X177818500Y-33670000D02*
X177728500Y-33760000D01*
X142318500Y-86920000D02*
X142228500Y-87010000D01*
X159978500Y-51510000D02*
X142408500Y-51510000D01*
X124658500Y-87010000D02*
X124568500Y-86920000D01*
X213318500Y-33670000D02*
X219068500Y-33670000D01*
X196601444Y-21000000D02*
X195058500Y-22542944D01*
X123738500Y-76892944D02*
X123738500Y-74500000D01*
X192658500Y-28160000D02*
X185918500Y-21420000D01*
X159978500Y-33760000D02*
X160068500Y-33670000D01*
X151658500Y-21420000D02*
X125181444Y-21420000D01*
X144316443Y-25204999D02*
X148898502Y-25204999D01*
X125181444Y-21420000D02*
X124058500Y-22542944D01*
X157095556Y-21500000D02*
X151738500Y-21500000D01*
X220505556Y-21000000D02*
X196601444Y-21000000D01*
X142228500Y-51510000D02*
X124658500Y-51510000D01*
X147158500Y-86920000D02*
X147738500Y-87500000D01*
X124478500Y-69080000D02*
X124568500Y-69170000D01*
X124658500Y-51510000D02*
X124568500Y-51420000D01*
X160068500Y-86920000D02*
X161988500Y-88840000D01*
X123238500Y-40892944D02*
X123238500Y-33000000D01*
X124478500Y-51510000D02*
X124478500Y-69080000D01*
X124568500Y-77722944D02*
X123738500Y-76892944D01*
X124568500Y-69170000D02*
X124658500Y-69260000D01*
X139408500Y-46170000D02*
X135461444Y-42222944D01*
X152168500Y-33057056D02*
X152871444Y-33760000D01*
X177728500Y-33760000D02*
X174498500Y-33760000D01*
X124568500Y-51420000D02*
X124568500Y-42222944D01*
X205728500Y-41410000D02*
X205728500Y-43950000D01*
X142228500Y-51510000D02*
X142318500Y-51420000D01*
X136818500Y-28170000D02*
X136818500Y-26062944D01*
X142318500Y-51420000D02*
X139408500Y-48510000D01*
X152168500Y-28474997D02*
X152168500Y-33057056D01*
X142228500Y-23117056D02*
X144316443Y-25204999D01*
X147738500Y-87500000D02*
X159488500Y-87500000D01*
X142318500Y-86920000D02*
X147158500Y-86920000D01*
X135461444Y-42222944D02*
X124568500Y-42222944D01*
X124513499Y-25180000D02*
X124238500Y-25454999D01*
X142228500Y-69260000D02*
X142318500Y-69170000D01*
X136818500Y-26062944D02*
X135935556Y-25180000D01*
X162955556Y-33760000D02*
X159558500Y-30362944D01*
X142228500Y-69080000D02*
X142228500Y-51510000D01*
X142318500Y-33670000D02*
X136818500Y-28170000D01*
X123738500Y-74500000D02*
X124568500Y-73670000D01*
X195058500Y-33160000D02*
X195568500Y-33670000D01*
X124058500Y-33160000D02*
X124568500Y-33670000D01*
X124568500Y-86920000D02*
X124568500Y-77722944D01*
X222738500Y-30000000D02*
X222738500Y-23232944D01*
X159558500Y-23962944D02*
X157095556Y-21500000D01*
X124568500Y-73670000D02*
X124568500Y-69170000D01*
X148898502Y-25204999D02*
X152168500Y-28474997D01*
X142228500Y-21770000D02*
X142228500Y-23117056D01*
X222738500Y-23232944D02*
X220505556Y-21000000D01*
X139408500Y-48510000D02*
X139408500Y-46170000D01*
X195568500Y-33670000D02*
X192658500Y-30760000D01*
X142408500Y-51510000D02*
X142318500Y-51420000D01*
X152871444Y-33760000D02*
X159978500Y-33760000D01*
X159558500Y-30362944D02*
X159558500Y-23962944D01*
X142318500Y-69170000D02*
X142228500Y-69080000D01*
X124568500Y-42222944D02*
X123238500Y-40892944D01*
X124568500Y-51420000D02*
X124478500Y-51510000D01*
X192658500Y-30760000D02*
X192658500Y-28160000D01*
X124058500Y-22542944D02*
X124058500Y-33160000D01*
X159488500Y-87500000D02*
X160068500Y-86920000D01*
X151738500Y-21500000D02*
X151658500Y-21420000D01*
X142578500Y-21420000D02*
X142228500Y-21770000D01*
X142228500Y-87010000D02*
X124658500Y-87010000D01*
X124658500Y-69260000D02*
X142228500Y-69260000D01*
X160068500Y-51420000D02*
X159978500Y-51510000D01*
X219068500Y-33670000D02*
X222738500Y-30000000D01*
X135935556Y-25180000D02*
X124513499Y-25180000D01*
X161988500Y-88840000D02*
X181176000Y-88840000D01*
X185918500Y-21420000D02*
X142578500Y-21420000D01*
X195058500Y-22542944D02*
X195058500Y-33160000D01*
%TO.N,CH1*%
X148040972Y-37084000D02*
X176002500Y-37084000D01*
X140616972Y-29660000D02*
X148040972Y-37084000D01*
X140111444Y-29660000D02*
X140616972Y-29660000D01*
X176002500Y-37084000D02*
X180328500Y-41410000D01*
X180328500Y-43950000D02*
X180328500Y-41410000D01*
X138386500Y-27935056D02*
X140111444Y-29660000D01*
X128678500Y-22620000D02*
X134590500Y-22620000D01*
X134590500Y-22620000D02*
X138386500Y-26416000D01*
X138386500Y-26416000D02*
X138386500Y-27935056D01*
%TO.N,CH2*%
X155150500Y-26644944D02*
X155150500Y-27054944D01*
X164163556Y-36068000D02*
X177526500Y-36068000D01*
X155150500Y-27054944D02*
X164163556Y-36068000D01*
X151125556Y-22620000D02*
X155150500Y-26644944D01*
X177526500Y-36068000D02*
X182868500Y-41410000D01*
X182868500Y-43950000D02*
X182868500Y-41410000D01*
X146428500Y-22620000D02*
X151125556Y-22620000D01*
%TO.N,CH3*%
X172318500Y-26367056D02*
X185408500Y-39457056D01*
X164178500Y-22620000D02*
X168875556Y-22620000D01*
X185408500Y-43950000D02*
X185408500Y-41410000D01*
X185408500Y-39457056D02*
X185408500Y-41410000D01*
X168875556Y-22620000D02*
X172318500Y-26062944D01*
X172318500Y-26062944D02*
X172318500Y-26367056D01*
%TO.N,CH4*%
X168368500Y-40370000D02*
X168738500Y-40000000D01*
X164178500Y-40370000D02*
X168368500Y-40370000D01*
X186738500Y-40200000D02*
X187948500Y-41410000D01*
X186738500Y-39500000D02*
X186738500Y-40200000D01*
X187948500Y-43950000D02*
X187948500Y-41410000D01*
%TO.N,CH6*%
X204934500Y-27876000D02*
X204934500Y-30480000D01*
X195304500Y-40110000D02*
X194328500Y-40110000D01*
X194328500Y-40110000D02*
X193028500Y-41410000D01*
X199678500Y-22620000D02*
X204934500Y-27876000D01*
X204934500Y-30480000D02*
X195304500Y-40110000D01*
X193028500Y-43950000D02*
X193028500Y-41410000D01*
%TO.N,CH7*%
X204681556Y-37084000D02*
X199894500Y-37084000D01*
X199894500Y-37084000D02*
X195568500Y-41410000D01*
X212808500Y-27240000D02*
X212808500Y-28957056D01*
X212808500Y-28957056D02*
X204681556Y-37084000D01*
X217428500Y-22620000D02*
X212808500Y-27240000D01*
X195568500Y-43950000D02*
X195568500Y-41410000D01*
%TO.N,CH8*%
X198108500Y-43950000D02*
X198108500Y-41410000D01*
X200138500Y-38100000D02*
X198108500Y-40130000D01*
X198108500Y-40130000D02*
X198108500Y-41410000D01*
X215158500Y-38100000D02*
X200138500Y-38100000D01*
X217428500Y-40370000D02*
X215158500Y-38100000D01*
%TO.N,CH9*%
X200648500Y-41410000D02*
X200648500Y-43950000D01*
%TO.N,CH10*%
X203188500Y-41410000D02*
X203188500Y-39450000D01*
X146428500Y-40370000D02*
X146428500Y-39310000D01*
X146428500Y-39310000D02*
X147238500Y-38500000D01*
X203188500Y-41410000D02*
X203188500Y-43950000D01*
X203188500Y-39450000D02*
X202738500Y-39000000D01*
D26*
%TO.N,Klinke R *%
X200693500Y-49195000D02*
X200693500Y-51735000D01*
X177303500Y-47995000D02*
X199493500Y-47995000D01*
X164178500Y-58120000D02*
X167178500Y-58120000D01*
X199493500Y-47995000D02*
X200693500Y-49195000D01*
X167178500Y-58120000D02*
X177303500Y-47995000D01*
D27*
%TO.N,Klinke L*%
X198153500Y-49195000D02*
X198153500Y-51735000D01*
%TO.N,Main R*%
X195613500Y-49195000D02*
X195613500Y-51735000D01*
%TO.N,Main L*%
X193073500Y-49195000D02*
X193073500Y-51735000D01*
D26*
%TO.N,Kopfh\u00F6rer L*%
X153368500Y-65060000D02*
X153368500Y-82810000D01*
%TO.N,Kopfh\u00F6rer R*%
X187993500Y-51735000D02*
X187993500Y-49195000D01*
%TO.N,Rec R*%
X185453500Y-51735000D02*
X185453500Y-49195000D01*
%TO.N,Rec L*%
X159021241Y-58360000D02*
X158900500Y-58360000D01*
X182913500Y-51735000D02*
X181988500Y-52660000D01*
X159958500Y-59297259D02*
X159021241Y-58360000D01*
X155706865Y-58166000D02*
X151086500Y-62786365D01*
X151086500Y-62786365D02*
X151086500Y-77152000D01*
X181488500Y-53750000D02*
X177988500Y-53750000D01*
X181988500Y-53250000D02*
X181488500Y-53750000D01*
X177988500Y-53750000D02*
X171540500Y-60198000D01*
X181988500Y-52660000D02*
X181988500Y-53250000D01*
X151086500Y-77152000D02*
X150238500Y-78000000D01*
X171540500Y-60198000D02*
X160429606Y-60198000D01*
X150238500Y-78000000D02*
X130808500Y-78000000D01*
X182913500Y-51825000D02*
X182913500Y-51735000D01*
X158900500Y-58360000D02*
X158706500Y-58166000D01*
X130808500Y-78000000D02*
X128678500Y-75870000D01*
X182913500Y-49195000D02*
X182913500Y-51735000D01*
X158706500Y-58166000D02*
X155706865Y-58166000D01*
X160429606Y-60198000D02*
X159958500Y-59726894D01*
X159958500Y-59726894D02*
X159958500Y-59297259D01*
D27*
%TO.N,Net-(J413-Pad1)*%
X188608500Y-88840000D02*
X184188501Y-84420001D01*
X191336000Y-88840000D02*
X188608500Y-88840000D01*
X184188501Y-72669999D02*
X186738500Y-70120000D01*
X184188501Y-84420001D02*
X184188501Y-72669999D01*
%TO.N,Net-(J413-Pad2)*%
X191336000Y-75520500D02*
X194774500Y-72082000D01*
X193738500Y-62500000D02*
X186738500Y-62500000D01*
X194774500Y-72082000D02*
X194774500Y-63536000D01*
D29*
X191336000Y-78680000D02*
X191336000Y-75520500D01*
D27*
X194774500Y-63536000D02*
X193738500Y-62500000D01*
D26*
%TO.N,Net-(J413-Pad3)*%
X187282500Y-75881533D02*
X191188500Y-71975533D01*
X189094500Y-81188000D02*
X187282500Y-79376000D01*
X201286500Y-81188000D02*
X189094500Y-81188000D01*
X187282500Y-79376000D02*
X187282500Y-75881533D01*
X191188500Y-71975533D02*
X191188500Y-66310000D01*
X203918500Y-83820000D02*
X201286500Y-81188000D01*
D29*
%TO.N,Net-(J414-Pad1)*%
X224346000Y-81457500D02*
X224346000Y-88600000D01*
D27*
X224346000Y-81457500D02*
X215238500Y-72350000D01*
X215238500Y-72350000D02*
X215238500Y-70120000D01*
D29*
%TO.N,Net-(J414-Pad2)*%
X224346000Y-78440000D02*
X224346000Y-64607500D01*
D27*
X222238500Y-62500000D02*
X215238500Y-62500000D01*
X224346000Y-64607500D02*
X222238500Y-62500000D01*
%TD*%
M02*
