%TF.GenerationSoftware,KiCad,Pcbnew,(6.0.7)*%
%TF.CreationDate,2022-09-16T17:54:49+02:00*%
%TF.ProjectId,Eingangsstufe,45696e67-616e-4677-9373-747566652e6b,rev?*%
%TF.SameCoordinates,Original*%
%TF.FileFunction,Soldermask,Bot*%
%TF.FilePolarity,Negative*%
%FSLAX46Y46*%
G04 Gerber Fmt 4.6, Leading zero omitted, Abs format (unit mm)*
G04 Created by KiCad (PCBNEW (6.0.7)) date 2022-09-16 17:54:49*
%MOMM*%
%LPD*%
G01*
G04 APERTURE LIST*
G04 Aperture macros list*
%AMHorizOval*
0 Thick line with rounded ends*
0 $1 width*
0 $2 $3 position (X,Y) of the first rounded end (center of the circle)*
0 $4 $5 position (X,Y) of the second rounded end (center of the circle)*
0 Add line between two ends*
20,1,$1,$2,$3,$4,$5,0*
0 Add two circle primitives to create the rounded ends*
1,1,$1,$2,$3*
1,1,$1,$4,$5*%
G04 Aperture macros list end*
%ADD10C,3.200000*%
%ADD11R,1.300000X1.300000*%
%ADD12C,1.300000*%
%ADD13HorizOval,1.500000X1.414214X1.414214X-1.414214X-1.414214X0*%
%ADD14O,7.500000X1.500000*%
%ADD15O,1.500000X7.500000*%
%ADD16R,1.700000X1.700000*%
%ADD17O,1.700000X1.700000*%
G04 APERTURE END LIST*
D10*
%TO.C,REF\u002A\u002A*%
X100800000Y-44200000D03*
%TD*%
%TO.C,REF\u002A\u002A*%
X224300000Y-103500000D03*
%TD*%
%TO.C,REF\u002A\u002A*%
X224300000Y-44200000D03*
%TD*%
%TO.C,REF\u002A\u002A*%
X100800000Y-103500000D03*
%TD*%
D11*
%TO.C,SW305*%
X120396000Y-52324000D03*
D12*
X122388000Y-52324000D03*
X124460000Y-52324000D03*
X120396000Y-57404000D03*
X122428000Y-57404000D03*
X124460000Y-57404000D03*
%TD*%
D13*
%TO.C,J307*%
X176852000Y-109318000D03*
D14*
X169782000Y-110728000D03*
D15*
X165802000Y-105208000D03*
D14*
X172742000Y-98268000D03*
D15*
X178562000Y-102108000D03*
%TD*%
D13*
%TO.C,J317*%
X160118000Y-47850000D03*
D15*
X149068000Y-43740000D03*
%TD*%
D11*
%TO.C,SW308*%
X137160000Y-72898000D03*
D12*
X139152000Y-72898000D03*
X141224000Y-72898000D03*
X137160000Y-77978000D03*
X139192000Y-77978000D03*
X141224000Y-77978000D03*
%TD*%
D11*
%TO.C,SW303*%
X170688000Y-72898000D03*
D12*
X172680000Y-72898000D03*
X174752000Y-72898000D03*
X170688000Y-77978000D03*
X172720000Y-77978000D03*
X174752000Y-77978000D03*
%TD*%
D13*
%TO.C,J315*%
X193646000Y-47850000D03*
D15*
X182596000Y-43740000D03*
%TD*%
D13*
%TO.C,J313*%
X143354000Y-92554000D03*
D14*
X136284000Y-93964000D03*
D15*
X132304000Y-88444000D03*
D14*
X139244000Y-81504000D03*
D15*
X145064000Y-85344000D03*
%TD*%
D16*
%TO.C,J322*%
X114041000Y-55372000D03*
D17*
X116581000Y-55372000D03*
X114041000Y-57912000D03*
X116581000Y-57912000D03*
X114041000Y-60452000D03*
X116581000Y-60452000D03*
X114041000Y-62992000D03*
X116581000Y-62992000D03*
X114041000Y-65532000D03*
X116581000Y-65532000D03*
X114041000Y-68072000D03*
X116581000Y-68072000D03*
X114041000Y-70612000D03*
X116581000Y-70612000D03*
X114041000Y-73152000D03*
X116581000Y-73152000D03*
X114041000Y-75692000D03*
X116581000Y-75692000D03*
%TD*%
D13*
%TO.C,J312*%
X126590000Y-109318000D03*
D14*
X119520000Y-110728000D03*
D15*
X115540000Y-105208000D03*
D14*
X122480000Y-98268000D03*
D15*
X128300000Y-102108000D03*
%TD*%
D16*
%TO.C,J310*%
X164084000Y-54605000D03*
D17*
X164084000Y-57145000D03*
X161544000Y-54605000D03*
X161544000Y-57145000D03*
X159004000Y-54605000D03*
X159004000Y-57145000D03*
X156464000Y-54605000D03*
X156464000Y-57145000D03*
X153924000Y-54605000D03*
X153924000Y-57145000D03*
X151384000Y-54605000D03*
X151384000Y-57145000D03*
X148844000Y-54605000D03*
X148844000Y-57145000D03*
X146304000Y-54605000D03*
X146304000Y-57145000D03*
X143764000Y-54605000D03*
X143764000Y-57145000D03*
X141224000Y-54605000D03*
X141224000Y-57145000D03*
X138684000Y-54605000D03*
X138684000Y-57145000D03*
X136144000Y-54605000D03*
X136144000Y-57145000D03*
%TD*%
D13*
%TO.C,J320*%
X193646000Y-64614000D03*
D15*
X182596000Y-60504000D03*
%TD*%
D13*
%TO.C,J316*%
X210410000Y-47850000D03*
D15*
X199360000Y-43740000D03*
%TD*%
D11*
%TO.C,SW302*%
X187452000Y-72898000D03*
D12*
X189444000Y-72898000D03*
X191516000Y-72898000D03*
X187452000Y-77978000D03*
X189484000Y-77978000D03*
X191516000Y-77978000D03*
%TD*%
D13*
%TO.C,J302*%
X160118000Y-92554000D03*
D14*
X153048000Y-93964000D03*
D15*
X149068000Y-88444000D03*
D14*
X156008000Y-81504000D03*
D15*
X161828000Y-85344000D03*
%TD*%
D11*
%TO.C,SW307*%
X120396000Y-72898000D03*
D12*
X122388000Y-72898000D03*
X124460000Y-72898000D03*
X120396000Y-77978000D03*
X122428000Y-77978000D03*
X124460000Y-77978000D03*
%TD*%
D13*
%TO.C,J306*%
X176882000Y-92554000D03*
D14*
X169812000Y-93964000D03*
D15*
X165832000Y-88444000D03*
D14*
X172772000Y-81504000D03*
D15*
X178592000Y-85344000D03*
%TD*%
D13*
%TO.C,J303*%
X160118000Y-109318000D03*
D14*
X153048000Y-110728000D03*
D15*
X149068000Y-105208000D03*
D14*
X156008000Y-98268000D03*
D15*
X161828000Y-102108000D03*
%TD*%
D13*
%TO.C,J304*%
X193646000Y-92554000D03*
D14*
X186576000Y-93964000D03*
D15*
X182596000Y-88444000D03*
D14*
X189536000Y-81504000D03*
D15*
X195356000Y-85344000D03*
%TD*%
D13*
%TO.C,J314*%
X143354000Y-109318000D03*
D14*
X136284000Y-110728000D03*
D15*
X132304000Y-105208000D03*
D14*
X139244000Y-98268000D03*
D15*
X145064000Y-102108000D03*
%TD*%
D11*
%TO.C,SW304*%
X204216000Y-72898000D03*
D12*
X206208000Y-72898000D03*
X208280000Y-72898000D03*
X204216000Y-77978000D03*
X206248000Y-77978000D03*
X208280000Y-77978000D03*
%TD*%
D13*
%TO.C,J308*%
X210410000Y-92554000D03*
D14*
X203340000Y-93964000D03*
D15*
X199360000Y-88444000D03*
D14*
X206300000Y-81504000D03*
D15*
X212120000Y-85344000D03*
%TD*%
D13*
%TO.C,J309*%
X210410000Y-109318000D03*
D14*
X203340000Y-110728000D03*
D15*
X199360000Y-105208000D03*
D14*
X206300000Y-98268000D03*
D15*
X212120000Y-102108000D03*
%TD*%
D11*
%TO.C,SW306*%
X170942000Y-52324000D03*
D12*
X172934000Y-52324000D03*
X175006000Y-52324000D03*
X170942000Y-57404000D03*
X172974000Y-57404000D03*
X175006000Y-57404000D03*
%TD*%
D13*
%TO.C,J318*%
X143354000Y-47850000D03*
D15*
X132304000Y-43740000D03*
%TD*%
D13*
%TO.C,J321*%
X126590000Y-47850000D03*
D15*
X115540000Y-43740000D03*
D14*
X122480000Y-36800000D03*
%TD*%
D13*
%TO.C,J305*%
X193646000Y-109318000D03*
D14*
X186576000Y-110728000D03*
D15*
X182596000Y-105208000D03*
D14*
X189536000Y-98268000D03*
D15*
X195356000Y-102108000D03*
%TD*%
D13*
%TO.C,J319*%
X210410000Y-64614000D03*
D15*
X199360000Y-60504000D03*
%TD*%
D13*
%TO.C,J323*%
X176882000Y-47850000D03*
D15*
X165832000Y-43740000D03*
D14*
X172772000Y-36800000D03*
%TD*%
D11*
%TO.C,SW301*%
X153924000Y-72898000D03*
D12*
X155916000Y-72898000D03*
X157988000Y-72898000D03*
X153924000Y-77978000D03*
X155956000Y-77978000D03*
X157988000Y-77978000D03*
%TD*%
D13*
%TO.C,J311*%
X126590000Y-92554000D03*
D14*
X119520000Y-93964000D03*
D15*
X115540000Y-88444000D03*
D14*
X122480000Y-81504000D03*
D15*
X128300000Y-85344000D03*
%TD*%
D16*
%TO.C,J301*%
X134874000Y-68072000D03*
D17*
X134874000Y-65532000D03*
X137414000Y-68072000D03*
X137414000Y-65532000D03*
X139954000Y-68072000D03*
X139954000Y-65532000D03*
X142494000Y-68072000D03*
X142494000Y-65532000D03*
X145034000Y-68072000D03*
X145034000Y-65532000D03*
X147574000Y-68072000D03*
X147574000Y-65532000D03*
X150114000Y-68072000D03*
X150114000Y-65532000D03*
X152654000Y-68072000D03*
X152654000Y-65532000D03*
X155194000Y-68072000D03*
X155194000Y-65532000D03*
X157734000Y-68072000D03*
X157734000Y-65532000D03*
X160274000Y-68072000D03*
X160274000Y-65532000D03*
X162814000Y-68072000D03*
X162814000Y-65532000D03*
X165354000Y-68072000D03*
X165354000Y-65532000D03*
X167894000Y-68072000D03*
X167894000Y-65532000D03*
X170434000Y-68072000D03*
X170434000Y-65532000D03*
X172974000Y-68072000D03*
X172974000Y-65532000D03*
%TD*%
M02*
